<svg width="572" height="419" viewBox="0 0 572 419" fill="none" xmlns="http://www.w3.org/2000/svg">
<g opacity="0.5" clip-path="url(#clip0)">
<path opacity="0.1" d="M27.1573 168.93H77.8274V238.025H30.8622C30.7424 238.739 30.6225 239.449 30.4877 240.163H77.8274V295.877C77.7475 295.877 77.6676 295.817 77.5927 295.787C76.2612 295.257 74.9297 294.696 73.5982 294.103C73.3136 293.973 73.034 293.839 72.7444 293.714C71.4129 293.084 70.0814 292.418 68.7499 291.716C68.2855 291.471 67.8212 291.216 67.3668 290.957C59.9748 286.83 53.2565 281.599 47.4443 275.442C47.2695 275.277 47.1098 275.098 46.945 274.943C46.1361 274.064 45.3422 273.174 44.5733 272.265C44.2837 271.931 44.0041 271.591 43.7194 271.266C42.8107 270.158 41.9319 269.009 41.0831 267.855C40.9533 267.68 40.8334 267.51 40.7086 267.355C37.2314 262.542 34.3478 257.326 32.1205 251.821C32.0506 251.656 31.9857 251.476 31.9207 251.322C31.2317 249.573 30.6076 247.8 30.0683 245.992C29.8386 245.238 29.6139 244.493 29.4242 243.709C29.3543 243.484 29.2994 243.255 29.2394 243.03C26.4333 231.966 26.1088 220.468 26.1088 209.024C26.1088 207.692 26.1088 206.36 26.1088 205.028C26.1487 200.356 26.2036 195.689 26.2735 191.027C26.3002 189.829 26.3251 188.625 26.3484 187.416C26.4183 184.356 26.5182 181.289 26.648 178.215C26.678 177.366 26.7179 176.512 26.7629 175.668C26.7828 175.178 26.8078 174.689 26.8378 174.199C26.9276 172.431 27.0342 170.675 27.1573 168.93Z" fill="#08517A"/>
<path opacity="0.1" d="M77.8274 91.9973H50.0308C54.5513 84.927 59.4882 78.1318 64.8153 71.6479C68.9496 66.573 73.3036 61.628 77.8274 56.8628V91.9973Z" fill="#08517A"/>
<path opacity="0.1" d="M77.8273 94.125V166.792H27.3171C27.3171 166.582 27.347 166.367 27.367 166.157C27.4119 165.583 27.4569 165.013 27.5068 164.439C27.5567 163.77 27.6217 163.1 27.6866 162.441C27.7515 161.782 27.8164 160.983 27.8963 160.258C27.9762 159.534 28.0411 158.8 28.121 158.075C28.2009 157.351 28.2807 156.627 28.3706 155.908C28.4605 155.188 28.5404 154.459 28.6402 153.74C28.7151 153.145 28.79 152.546 28.8749 151.947C28.9898 151.103 29.1096 150.258 29.2344 149.419C29.2344 149.289 29.2744 149.164 29.2943 149.04C30.2069 142.897 31.447 136.808 33.0092 130.798C34.6498 124.494 36.744 118.318 39.2756 112.317C41.9655 106.029 45.1165 99.9482 48.7025 94.125H77.8273Z" fill="#08517A"/>
<path opacity="0.1" d="M89.9307 168.929V238.025H198.161V168.929H89.9307ZM89.9307 240.163V299.503C90.5498 299.627 91.159 299.752 91.7731 299.857C92.597 300.017 93.4258 300.162 94.2697 300.287L94.769 300.357C95.0985 300.412 95.4331 300.457 95.7676 300.497C96.6015 300.616 97.4353 300.706 98.2642 300.786C98.6536 300.826 99.0581 300.856 99.4525 300.891L100.416 300.961C100.94 301.001 101.46 301.031 101.979 301.051C102.299 301.051 102.618 301.076 102.943 301.086C103.267 301.096 103.442 301.086 103.702 301.086H104.645C105.075 301.086 105.504 301.086 105.929 301.086H106.478C106.907 301.086 107.337 301.086 107.761 301.046H107.786C108.086 301.046 108.38 301.046 108.68 301.011C108.765 301.016 108.85 301.016 108.934 301.011C109.184 301.011 109.434 301.011 109.673 300.981C109.73 300.977 109.787 300.977 109.843 300.981C110.397 300.946 110.957 300.901 111.521 300.851C112.085 300.801 112.619 300.741 113.184 300.681L114.317 300.542C118.949 299.893 123.529 298.918 128.023 297.624C138.124 294.807 147.995 290.866 158.092 287.984C171.134 284.263 185.554 282.43 198.156 286.96V240.163H89.9307ZM198.161 91.9971V0.00988467C186.313 -0.12052 174.497 1.26431 163 4.13073C135.593 11.0188 110.982 25.9587 89.9307 45.0394V91.9921H95.3781V94.1249H89.9307V166.792H198.161V94.1249H117.662V91.9871L198.161 91.9971ZM337.209 60.9234C330.429 60.6837 323.688 58.5408 317.586 55.2192C305.932 48.8806 296.615 39.0805 286.21 30.8188C264.59 13.6012 237.777 3.20666 210.27 0.629259V91.9971H364.761L365.146 91.5925L337.209 60.9234ZM351.285 58.4259L366.209 74.8144V54.1153C361.186 54.7496 356.812 56.2232 351.285 58.406V58.4259ZM366.209 314.238V240.163H334.383C334.303 239.848 334.213 239.528 334.114 239.208C334.208 239.528 334.293 239.848 334.378 240.163H210.27V293.728C211.448 294.603 212.611 295.527 213.765 296.456C215.01 297.475 216.246 298.505 217.475 299.548L218.713 300.572C219.307 301.071 219.911 301.571 220.51 302.045C221.712 303.014 222.922 303.973 224.14 304.922C224.75 305.402 225.362 305.873 225.978 306.336C235.73 313.792 246.017 320.522 256.755 326.47C259.162 327.814 261.594 329.108 264.04 330.371C265.668 331.211 267.307 332.033 268.958 332.839C271.435 334.048 273.932 335.213 276.448 336.335C299.649 346.754 324.183 353.902 349.348 357.574C354.933 358.397 360.544 359.046 366.179 359.522V314.228H366.679L366.209 314.238ZM210.27 94.1249V166.792H366.209V94.1249H210.27ZM210.27 168.919V238.025H366.209V168.929L210.27 168.919ZM378.312 54.0154V77.142L397.356 56.2281C391.045 55.1859 384.697 54.4483 378.312 54.0154ZM378.312 168.929V238.025H529.978V168.929H378.312ZM529.444 319.717L529.978 240.163H378.312V360.326C388.082 360.733 397.866 360.614 407.622 359.972H407.792C412.452 359.672 417.091 359.246 421.708 358.693H421.812C446.451 355.824 470.542 349.386 493.329 339.582L529.444 319.717ZM559.238 180.278C558.662 178.946 558.071 177.614 557.465 176.282C556.337 173.785 555.148 171.357 553.92 168.934H542.086V238.025H572C571.975 218.454 567.022 198.475 559.238 180.278ZM542.086 240.163V308.593C550.51 300.517 557.635 291.271 562.758 280.702C568.924 267.969 571.745 254.193 571.98 240.158L542.086 240.163ZM542.086 148.795V166.777H552.812C549.56 160.595 545.98 154.593 542.086 148.795ZM439.228 67.5767C438.439 67.272 437.646 66.9673 436.852 66.6776C428.481 63.5828 419.926 61.0104 411.237 58.9754L382.087 90.9731L381.518 91.5875L381.893 91.9921H485.639C471.189 82.0451 455.61 73.8493 439.228 67.5767ZM488.685 94.1249H380.44L378.312 96.0679V166.792H396.962H529.978V132.526C517.95 117.976 504.068 105.065 488.685 94.1249Z" fill="#08517A"/>
<path opacity="0.1" d="M77.8273 130.783V166.792H27.3171C27.3171 166.582 27.347 166.367 27.367 166.157C27.4119 165.583 27.4569 165.014 27.5068 164.439C27.5567 163.77 27.6217 163.101 27.6866 162.441C27.7515 161.782 27.8164 160.983 27.8963 160.258C27.9762 159.534 28.0411 158.8 28.121 158.076C28.2009 157.351 28.2807 156.627 28.3706 155.908C28.4605 155.189 28.5404 154.459 28.6402 153.74C28.7151 153.146 28.79 152.546 28.8749 151.947C28.9898 151.103 29.1096 150.259 29.2344 149.419C29.2344 149.29 29.2744 149.165 29.2943 149.04C30.2069 142.897 31.447 136.808 33.0092 130.798L77.8273 130.783Z" fill="#08517A"/>
<path opacity="0.1" d="M27.1573 168.93H77.8274V238.025H30.8622C30.7424 238.739 30.6225 239.449 30.4877 240.163H77.8274V295.877C77.7475 295.877 77.6676 295.817 77.5927 295.787C76.2612 295.257 74.9297 294.696 73.5982 294.103C73.3136 293.973 73.034 293.839 72.7444 293.714C71.4129 293.084 70.0814 292.418 68.7499 291.716C68.2855 291.471 67.8212 291.216 67.3668 290.957C59.9748 286.83 53.2565 281.599 47.4443 275.442C47.2695 275.277 47.1098 275.098 46.945 274.943C46.1361 274.064 45.3422 273.174 44.5733 272.265C44.2837 271.931 44.0041 271.591 43.7194 271.266C42.8107 270.158 41.9319 269.009 41.0831 267.855C40.9533 267.68 40.8334 267.51 40.7086 267.355C37.2314 262.542 34.3478 257.326 32.1205 251.821C32.0506 251.656 31.9857 251.476 31.9207 251.322C31.2317 249.573 30.6076 247.8 30.0683 245.992C29.8386 245.238 29.6139 244.493 29.4242 243.709C29.3543 243.484 29.2994 243.255 29.2394 243.03C26.4333 231.966 26.1088 220.468 26.1088 209.024C26.1088 207.692 26.1088 206.36 26.1088 205.028C26.1487 200.356 26.2036 195.689 26.2735 191.027C26.3002 189.829 26.3251 188.625 26.3484 187.416C26.4183 184.356 26.5182 181.289 26.648 178.215C26.678 177.366 26.7179 176.512 26.7629 175.668C26.7828 175.178 26.8078 174.689 26.8378 174.199C26.9276 172.431 27.0342 170.675 27.1573 168.93Z" fill="#08517A"/>
<path opacity="0.1" d="M128.028 104.534V166.791H89.9257V104.534H95.3582V83.4556H117.657V104.534H128.028Z" fill="#08517A"/>
<path opacity="0.1" d="M128.023 168.924H89.9257V238.02H128.023V168.924Z" fill="#08517A"/>
<path opacity="0.1" d="M89.9307 240.163H128.028V297.605C123.534 298.899 118.954 299.872 114.322 300.517C113.943 300.572 113.568 300.617 113.189 300.657C112.629 300.721 112.075 300.781 111.521 300.831L109.848 300.966H109.678L108.939 301.006H108.685C108.385 301.006 108.091 301.041 107.791 301.046H107.766C107.337 301.046 106.912 301.076 106.483 301.086H105.934C105.509 301.086 105.085 301.086 104.65 301.086H103.712H102.948C102.623 301.086 102.304 301.086 101.979 301.046C101.466 301.026 100.947 300.996 100.421 300.956L99.4575 300.886C99.0581 300.856 98.6586 300.816 98.2642 300.776C97.4253 300.703 96.5931 300.608 95.7676 300.492L94.769 300.352L94.2697 300.282C93.4358 300.157 92.607 300.017 91.7731 299.857C91.154 299.747 90.5448 299.623 89.9307 299.493V240.163Z" fill="#08517A"/>
<path opacity="0.1" d="M366.204 97.1821H334.788V166.787H366.204V97.1821Z" fill="#08517A"/>
<path opacity="0.1" d="M366.209 168.924V238.025H210.269V208.22H293.33V225.802H334.788V168.924H366.209Z" fill="#08517A"/>
<path opacity="0.1" d="M366.703 314.253C366.539 314.253 366.374 314.253 366.204 314.223V359.552C360.575 359.089 354.966 358.441 349.377 357.609C324.204 353.938 299.661 346.794 276.448 336.38C269.747 333.357 263.183 330.062 256.755 326.495C246.021 320.544 235.736 313.814 225.983 306.361C223.526 304.483 221.106 302.563 218.723 300.602C217.07 299.233 215.432 297.834 213.765 296.481C212.616 295.547 211.453 294.623 210.269 293.743V240.163H334.378C334.288 239.843 334.208 239.528 334.118 239.208C334.213 239.528 334.303 239.843 334.383 240.163H366.209V314.218C366.374 314.223 366.539 314.238 366.703 314.253Z" fill="#08517A"/>
<path opacity="0.1" d="M448.146 91.9972H427.674V85.6336H436.847V66.6777C437.642 66.9708 438.434 67.2705 439.223 67.5768V85.6336H448.141L448.146 91.9972Z" fill="#08517A"/>
<path opacity="0.1" d="M497.473 166.792H396.962C396.972 166.794 396.982 166.794 396.992 166.792H396.947H378.312V97.1869H383.595V148.635H407.732V118.166H427.679V94.125H448.151V118.181H468.088V148.65H497.478L497.473 166.792Z" fill="#08517A"/>
<path opacity="0.1" d="M378.312 168.93V238.025H497.478V168.93H378.312ZM529.808 319.353L529.978 264.658H497.478V240.183H378.312V360.327C388.082 360.733 397.865 360.615 407.622 359.972H407.792C412.452 359.672 417.091 359.246 421.708 358.693H421.812C446.451 355.824 470.542 349.387 493.329 339.582" fill="#08517A"/>
<path opacity="0.1" d="M544.183 240.163H571.98C571.74 254.193 568.924 267.975 562.758 280.702C557.635 291.276 550.51 300.522 542.086 308.599V264.643H544.183V240.163Z" fill="#08517A"/>
<path opacity="0.1" d="M572 238.025H544.183V180.278H559.238C567.022 198.475 571.975 218.455 572 238.025Z" fill="#08517A"/>
<path opacity="0.1" d="M366.209 116.532H349.377V138.355H366.209V116.532Z" fill="#08517A"/>
<path opacity="0.1" d="M366.209 161.767H349.377V166.792H366.209V161.767Z" fill="#08517A"/>
<path opacity="0.1" d="M366.209 168.924H349.377V183.585H366.209V168.924Z" fill="#08517A"/>
<path opacity="0.1" d="M366.209 207.001H349.377V228.824H366.209V207.001Z" fill="#08517A"/>
<path opacity="0.1" d="M366.209 252.235H349.377V274.058H366.209V252.235Z" fill="#08517A"/>
<path opacity="0.1" d="M366.209 314.218C366.374 314.218 366.539 314.218 366.708 314.253C366.544 314.253 366.379 314.253 366.209 314.223V319.293H349.377V297.47H366.209V314.218Z" fill="#08517A"/>
<path opacity="0.1" d="M366.209 342.699V359.552C360.577 359.089 354.966 358.442 349.377 357.609V342.699H366.209Z" fill="#08517A"/>
<path opacity="0.1" d="M282.405 236.421H210.269V238.025H282.405V236.421Z" fill="#08517A"/>
<path opacity="0.1" d="M282.405 240.158H210.269V246.302H282.405V240.158Z" fill="#08517A"/>
<path opacity="0.1" d="M282.405 266.441H210.269V276.321H282.405V266.441Z" fill="#08517A"/>
<path opacity="0.1" d="M282.405 296.461V306.341H225.983C223.526 304.47 221.106 302.548 218.723 300.577C217.065 299.213 215.427 297.815 213.765 296.461H282.405Z" fill="#08517A"/>
<path opacity="0.1" d="M282.405 326.476V336.381H276.448C269.747 333.357 263.183 330.062 256.755 326.496L282.405 326.476Z" fill="#08517A"/>
<path opacity="0.1" d="M421.822 175.623H407.622V189.828H421.822V175.623Z" fill="#08517A"/>
<path opacity="0.1" d="M114.357 109.435H100.157V123.64H114.357V109.435Z" fill="#08517A"/>
<path opacity="0.1" d="M114.357 142.431H100.157V156.637H114.357V142.431Z" fill="#08517A"/>
<path opacity="0.1" d="M114.357 175.428H100.157V189.633H114.357V175.428Z" fill="#08517A"/>
<path opacity="0.1" d="M114.357 208.419H100.157V222.625H114.357V208.419Z" fill="#08517A"/>
<path opacity="0.1" d="M114.357 241.417H100.157V255.622H114.357V241.417Z" fill="#08517A"/>
<path opacity="0.1" d="M114.357 274.413H100.157V288.619H114.357V274.413Z" fill="#08517A"/>
<path opacity="0.1" d="M476.033 175.623H461.832V189.828H476.033V175.623Z" fill="#08517A"/>
<path opacity="0.1" d="M421.822 210.663H407.622V224.868H421.822V210.663Z" fill="#08517A"/>
<path opacity="0.1" d="M476.033 210.663H461.832V224.868H476.033V210.663Z" fill="#08517A"/>
<path opacity="0.1" d="M421.822 245.697H407.622V259.902H421.822V245.697Z" fill="#08517A"/>
<path opacity="0.1" d="M476.033 245.697H461.832V259.902H476.033V245.697Z" fill="#08517A"/>
<path opacity="0.1" d="M421.822 280.737H407.622V294.942H421.822V280.737Z" fill="#08517A"/>
<path opacity="0.1" d="M476.033 280.737H461.832V294.942H476.033V280.737Z" fill="#08517A"/>
<path opacity="0.1" d="M421.822 315.776H407.622V329.982H421.822V315.776Z" fill="#08517A"/>
<path opacity="0.1" d="M476.033 315.776H461.832V329.982H476.033V315.776Z" fill="#08517A"/>
<path opacity="0.1" d="M407.622 359.972V350.811H421.817V358.668L407.622 359.972Z" fill="#08517A"/>
<path opacity="0.1" d="M29.2344 149.024V157.151H77.8273V149.024H29.2344ZM34.0728 156.642H30.0783V149.539H34.0728V156.642ZM38.9111 156.642H34.9166V149.539H38.9111V156.642ZM43.7394 156.642H39.7449V149.539H43.7394V156.642ZM48.5777 156.642H44.5832V149.539H48.5777V156.642ZM53.4111 156.642H49.4166V149.539H53.4111V156.642ZM58.2494 156.642H54.2549V149.539H58.2494V156.642ZM63.0877 156.642H59.0932V149.539H63.0877V156.642ZM67.921 156.642H63.9265V149.539H67.921V156.642ZM72.7543 156.642H68.7599V149.539H72.7543V156.642ZM77.5927 156.642H73.5982V149.539H77.5927V156.642Z" fill="#08517A"/>
<path opacity="0.1" d="M29.2344 172.681V180.807H77.8273V172.681H29.2344ZM34.0728 180.298H30.0783V173.195H34.0728V180.298ZM38.9111 180.298H34.9166V173.195H38.9111V180.298ZM43.7394 180.298H39.7449V173.195H43.7394V180.298ZM48.5777 180.298H44.5832V173.195H48.5777V180.298ZM53.4111 180.298H49.4166V173.195H53.4111V180.298ZM58.2494 180.298H54.2549V173.195H58.2494V180.298ZM63.0877 180.298H59.0932V173.195H63.0877V180.298ZM67.921 180.298H63.9265V173.195H67.921V180.298ZM72.7543 180.298H68.7599V173.195H72.7543V180.298ZM77.5927 180.298H73.5982V173.195H77.5927V180.298Z" fill="#08517A"/>
<path opacity="0.1" d="M29.2344 196.342V204.464H77.8273V196.342H29.2344ZM34.0728 203.949H30.0783V196.846H34.0728V203.949ZM38.9111 203.949H34.9166V196.846H38.9111V203.949ZM43.7394 203.949H39.7449V196.846H43.7394V203.949ZM48.5777 203.949H44.5832V196.846H48.5777V203.949ZM53.4111 203.949H49.4166V196.846H53.4111V203.949ZM58.2494 203.949H54.2549V196.846H58.2494V203.949ZM63.0877 203.949H59.0932V196.846H63.0877V203.949ZM67.921 203.949H63.9265V196.846H67.921V203.949ZM72.7543 203.949H68.7599V196.846H72.7543V203.949ZM77.5927 203.949H73.5982V196.846H77.5927V203.949Z" fill="#08517A"/>
<path opacity="0.1" d="M29.2344 219.998V228.12H77.8273V219.998H29.2344ZM34.0728 227.61H30.0783V220.498H34.0728V227.61ZM38.9111 227.61H34.9166V220.498H38.9111V227.61ZM43.7394 227.61H39.7449V220.498H43.7394V227.61ZM48.5777 227.61H44.5832V220.498H48.5777V227.61ZM53.4111 227.61H49.4166V220.498H53.4111V227.61ZM58.2494 227.61H54.2549V220.498H58.2494V227.61ZM63.0877 227.61H59.0932V220.498H63.0877V227.61ZM67.921 227.61H63.9265V220.498H67.921V227.61ZM72.7543 227.61H68.7599V220.498H72.7543V227.61ZM77.5927 227.61H73.5982V220.498H77.5927V227.61Z" fill="#08517A"/>
<path opacity="0.1" d="M29.4691 243.644C29.6589 244.413 29.8835 245.173 30.1132 245.927V244.159H34.1077V251.256H31.9657C32.0256 251.426 32.0905 251.601 32.1604 251.756H77.8473V243.644H29.4691ZM38.956 251.256H34.9615V244.159H38.956V251.256ZM43.7844 251.256H39.7899V244.159H43.7844V251.256ZM48.6227 251.256H44.6282V244.159H48.6227V251.256ZM53.456 251.256H49.4615V244.159H53.456V251.256ZM58.2943 251.256H54.2998V244.159H58.2943V251.256ZM63.1326 251.256H59.1382V244.159H63.1326V251.256ZM67.966 251.256H63.9715V244.159H67.966V251.256ZM72.7993 251.256H68.8048V244.159H72.7993V251.256ZM77.6376 251.256H73.6431V244.159H77.6376V251.256Z" fill="#08517A"/>
<path opacity="0.1" d="M40.7236 267.3C40.8534 267.46 40.9732 267.64 41.0981 267.8H43.7394V271.211L44.5932 272.21V267.78H48.5877V274.943H46.945C47.1048 275.107 47.2595 275.282 47.4443 275.442H77.8174V267.3H40.7236ZM53.436 274.943H49.4415V267.81H53.436V274.943ZM58.2743 274.943H54.2799V267.81H58.2743V274.943ZM63.1127 274.943H59.1182V267.81H63.1127V274.943ZM67.946 274.943H63.9515V267.81H67.946V274.943ZM72.7793 274.943H68.7848V267.81H72.7793V274.943ZM77.6176 274.943H73.6231V267.81H77.6176V274.943Z" fill="#08517A"/>
<path opacity="0.1" d="M67.3818 290.957C67.8411 291.216 68.3055 291.456 68.7699 291.711V291.461H72.7644V293.714C73.054 293.839 73.3286 293.974 73.6132 294.103V291.461H77.6077V295.787C77.6836 295.821 77.7621 295.849 77.8423 295.872V290.957H67.3818Z" fill="#08517A"/>
<path opacity="0.1" d="M366.204 314.218H366.703H366.204ZM334.113 239.209C334.208 239.528 334.293 239.848 334.378 240.163C334.303 239.848 334.213 239.528 334.113 239.209ZM95.3781 91.9973V94.1251H117.682V91.9873L95.3781 91.9973ZM366.209 314.218H366.708H366.209ZM334.113 239.209C334.208 239.528 334.293 239.848 334.378 240.163C334.303 239.848 334.213 239.528 334.113 239.209ZM366.204 314.218H366.703H366.204ZM334.113 239.209C334.208 239.528 334.293 239.848 334.378 240.163C334.303 239.848 334.213 239.528 334.113 239.209Z" fill="#08517A"/>
<path opacity="0.1" d="M428.109 431C454.979 431 476.761 427.5 476.761 423.183C476.761 418.866 454.979 415.366 428.109 415.366C401.238 415.366 379.456 418.866 379.456 423.183C379.456 427.5 401.238 431 428.109 431Z" fill="#08517A"/>
<path opacity="0.1" d="M208.682 423.183C235.552 423.183 257.335 419.683 257.335 415.366C257.335 411.049 235.552 407.549 208.682 407.549C181.811 407.549 160.029 411.049 160.029 415.366C160.029 419.683 181.811 423.183 208.682 423.183Z" fill="#08517A"/>
<path d="M264.694 208.665C264.682 208.615 264.656 208.57 264.619 208.535C263.875 207.8 254.389 194.379 254.389 194.379C254.389 194.379 253.889 192.88 253.08 190.932C253.34 190.597 253.534 190.216 253.655 189.809C253.698 189.636 253.73 189.461 253.749 189.284C253.749 189.229 253.789 189.184 253.804 189.129C253.978 188.452 253.96 187.74 253.754 187.071C253.699 187.243 253.63 187.41 253.55 187.571C253.362 186.989 253.111 186.43 252.801 185.903C251.542 183.735 249.745 181.907 248.422 179.794C246.418 176.511 245.622 172.632 246.17 168.825C246.17 169.02 246.17 169.219 246.17 169.414C246.22 168.659 246.32 167.908 246.469 167.166C246.678 166.322 246.957 165.497 247.303 164.699C248.492 161.977 250.414 159.604 251.582 156.872C251.974 155.95 252.272 154.991 252.471 154.01C252.883 152.37 253.033 150.676 252.916 148.99C252.916 149.389 252.851 149.789 252.791 150.184C252.664 146.129 251.028 142.269 248.202 139.36C244.123 135.259 238.266 133.665 232.664 132.826C230.309 132.551 228.061 131.693 226.123 130.329C223.971 128.935 221.189 128.6 218.673 128.905C215.78 129.218 213.093 130.547 211.088 132.656C208.427 135.583 207.274 139.729 204.168 142.197C202.285 143.695 199.899 144.394 197.707 145.413C195.515 146.432 193.443 147.911 192.739 150.099C192.739 150.099 192.739 150.069 192.739 150.054V150.179L192.709 150.259C191.98 152.846 193.388 155.478 194.122 158.061C194.886 160.733 194.936 163.555 194.976 166.317C195.031 169.694 195.08 173.075 195.026 176.457C195.001 177.786 194.956 179.129 194.856 180.453C193.674 180.81 192.526 181.272 191.425 181.832C190.307 182.561 186.123 187.081 186.123 187.081L177.939 218.36L178.049 218.485L177.939 218.909L178.354 218.814C179.512 220.063 182.972 223.619 186.707 225.837L187.057 231.971C187.057 231.971 187.476 238.125 193.133 240.667C193.263 242.8 193.667 251.461 191.795 254.893C190.498 257.4 189.889 260.206 190.027 263.025C190.027 263.025 190.682 268.229 189.938 270.967C189.503 272.796 189.471 274.698 189.843 276.541C189.843 276.541 189.843 277.145 189.843 278.184C189.843 283.724 189.908 301.476 189.843 303.484C189.748 305.856 189.843 340.946 189.843 340.946C189.843 340.946 189.378 358.483 187.89 363.234C186.402 367.984 186.777 383.713 186.777 383.713C186.777 383.713 185.843 402.449 189.144 406.145C189.144 406.31 189.114 406.48 189.109 406.645C189.109 406.72 189.109 406.805 189.109 406.88C189.069 408.303 189.343 409.817 190.567 410.281C193.063 411.24 196.364 414.117 196.988 414.941C197.612 415.766 201.242 417.818 205.975 417.269C208.941 416.936 211.925 416.799 214.908 416.859C214.908 416.859 216.775 416.52 216.171 414.197C215.782 412.749 214.324 410.521 213.285 409.057C213.475 409.107 213.66 409.147 213.835 409.182L214.014 409.217H214.154C214.231 409.222 214.307 409.222 214.384 409.217H214.484C214.577 409.225 214.67 409.225 214.763 409.217C216.017 409.097 220.69 411.275 221.524 412.714C222.358 414.152 225.299 415.246 227.516 415.521C228.834 415.681 232.159 415.411 234.95 415.051C236.356 414.906 237.748 414.652 239.115 414.292C239.774 414.042 239.914 413.243 239.724 412.344C239.5 411.202 238.89 410.172 237.996 409.427C237.187 408.853 236.119 407.339 235.33 406.1L235.12 405.766C236.513 404.437 239.03 400.091 239.794 399.192C240.722 398.098 238.296 358.094 238.296 358.094V338.039L242.016 319.058L244.617 309.013L246.849 293.849C246.849 293.849 250.754 276.136 249.55 274.398C249.55 274.363 248.552 256.127 247.503 251.746C247.049 249.793 247.164 245.397 247.433 241.122C247.715 240.842 247.911 240.488 248 240.1C248.088 239.713 248.065 239.309 247.932 238.934C247.858 238.678 247.761 238.429 247.643 238.19C247.643 238.115 247.643 238.035 247.643 237.96C249.8 236.967 252.054 236.201 254.369 235.672C258.088 234.943 257.16 233.025 257.16 233.025C257.16 233.025 257.999 231.382 258.553 230.378C259.107 229.374 258.648 220.513 258.553 219.783C258.518 219.489 258.288 217.86 258.023 216.012C259.217 215.163 260.77 214.109 262.462 213.11C265.683 211.202 264.959 209.189 264.694 208.665ZM216.161 335.302C216.161 335.302 213.37 342.425 214.489 344.248C215.607 346.071 214.304 352.839 214.304 352.839L213.37 362.884C213.37 362.884 210.769 381.515 211.697 385.896C212.426 389.332 212.696 399.597 212.781 403.878C212.717 403.902 212.655 403.932 212.596 403.967L212.471 404.032C212.901 402.349 212.721 398.943 210.589 392.089L210.409 363.783C210.409 363.783 210.08 331.086 212.661 327.43C215.243 323.773 216.156 317.565 216.156 317.565C216.156 317.565 215.597 326.521 215.233 328.893C214.868 331.266 216.161 335.302 216.161 335.302ZM210.963 405.661C210.939 405.721 210.909 405.781 210.889 405.836L210.749 405.656C210.82 405.663 210.892 405.664 210.963 405.661Z" fill="url(#paint0_linear)"/>
<path d="M239.429 416.879C237.986 417.433 230.162 418.378 227.975 418.113C225.788 417.848 222.892 416.739 222.068 415.291C221.244 413.842 216.626 411.654 215.387 411.794C214.88 411.809 214.373 411.738 213.889 411.584C213.035 411.326 212.201 411.005 211.393 410.625C211.28 409.996 211.299 409.349 211.448 408.727C211.477 408.602 211.513 408.478 211.558 408.358C211.849 407.538 212.452 406.867 213.235 406.489L213.415 406.405C213.761 406.255 214.123 406.144 214.494 406.075C218.418 405.321 234.611 406.834 234.611 406.834C234.611 406.834 235.065 407.648 235.689 408.657C236.468 409.906 237.527 411.43 238.326 412.004C239.211 412.761 239.811 413.797 240.028 414.941C240.218 415.825 240.078 416.634 239.429 416.879Z" fill="white"/>
<path opacity="0.1" d="M239.429 416.879C237.986 417.434 230.167 418.378 227.98 418.113C225.793 417.849 222.897 416.735 222.068 415.291C221.239 413.848 216.631 411.655 215.392 411.795C214.154 411.934 211.398 410.626 211.398 410.626C211.398 410.626 210.969 408.628 212.217 407.264L214.713 409.037C214.713 409.037 221.394 411.11 222.632 413.033C223.871 414.956 226.128 416.03 229.388 416.225C231.825 416.385 237.422 415.436 240.043 414.961C240.218 415.826 240.083 416.635 239.429 416.879Z" fill="black"/>
<path d="M215.527 419.426C212.582 419.369 209.636 419.508 206.709 419.841C202.021 420.39 198.441 418.343 197.817 417.498C197.193 416.654 193.962 413.802 191.48 412.803C190.267 412.334 189.982 410.805 190.037 409.377C190.037 409.302 190.037 409.217 190.037 409.142C190.083 408.237 190.217 407.339 190.437 406.46L209.865 406.045L211.548 408.328L211.807 408.677L212.831 410.071C212.831 410.071 213.295 410.68 213.904 411.569C214.933 413.068 216.371 415.281 216.755 416.744C217.37 419.087 215.527 419.426 215.527 419.426Z" fill="white"/>
<path opacity="0.1" d="M215.527 419.427C212.582 419.369 209.636 419.508 206.709 419.841C202.026 420.391 198.441 418.343 197.822 417.499C197.203 416.654 193.962 413.777 191.48 412.813C190.267 412.344 189.982 410.815 190.037 409.387C191.425 409.711 194.341 410.541 195.485 411.984C196.983 413.912 199.664 417.154 203.474 417.359C206.55 417.524 214.039 416.974 216.785 416.754C217.375 419.087 215.527 419.427 215.527 419.427Z" fill="black"/>
<path opacity="0.1" d="M213.215 406.47C212.991 408.138 212.297 408.588 211.797 408.687C211.675 408.711 211.55 408.711 211.428 408.687C211.362 408.683 211.297 408.673 211.233 408.657C211.233 408.657 193.787 412.514 190.262 409.392C190.173 409.311 190.089 409.225 190.012 409.132C190.058 408.227 190.192 407.329 190.412 406.45L209.84 406.035L211.523 408.318C211.814 407.498 212.417 406.827 213.2 406.45L213.215 406.47Z" fill="black"/>
<path opacity="0.1" d="M235.684 408.638C235.295 409.067 234.97 409.312 234.766 409.227C233.847 408.858 226.317 407.574 223.926 408.678C221.534 409.782 213.44 408.858 213.44 408.858C213.44 408.858 213.44 407.899 213.395 406.36C213.741 406.211 214.103 406.1 214.474 406.03C218.398 405.276 234.591 406.79 234.591 406.79C234.591 406.79 235.065 407.629 235.684 408.638Z" fill="black"/>
<path d="M247.079 295.652L244.872 310.906L242.305 321.016L238.63 340.127V360.356C238.63 360.356 241.017 400.606 240.098 401.705C239.18 402.804 235.689 409.062 234.771 408.698C233.852 408.333 226.322 407.044 223.931 408.143C221.539 409.242 213.445 408.328 213.445 408.328C213.445 408.328 213.26 392.709 212.342 388.298C211.423 383.888 213.994 365.142 213.994 365.142L214.913 355.037C214.913 355.037 216.201 348.234 215.098 346.396C213.994 344.557 216.751 337.405 216.751 337.405C216.751 337.405 215.467 333.354 215.837 330.966C216.206 328.579 216.751 319.573 216.751 319.573C216.751 319.573 215.837 325.826 213.285 329.498C210.734 333.169 211.058 366.071 211.058 366.071L211.238 394.542C215.837 409.617 211.238 408.143 211.238 408.143C211.238 408.143 193.792 412.004 190.267 408.878C186.742 405.751 187.751 386.071 187.751 386.071C187.751 386.071 187.386 370.266 188.854 365.491C190.322 360.716 190.786 343.069 190.786 343.069C190.786 343.069 190.691 307.779 190.786 305.397C190.856 303.399 190.786 285.512 190.786 279.923C190.786 278.884 190.786 278.269 190.786 278.269L192.893 273.035L217.859 269.908H229.803C229.803 269.908 247.778 274.133 249.635 275.957C249.675 275.987 249.709 276.024 249.735 276.067C250.938 277.83 247.079 295.652 247.079 295.652Z" fill="#08517A"/>
<path opacity="0.1" d="M216.766 375.781C216.766 375.781 222.258 389.012 224.849 389.932C227.441 390.851 216.766 375.781 216.766 375.781Z" fill="black"/>
<path opacity="0.1" d="M218.798 395.261C218.798 395.261 237.342 396.18 237.157 398.203C236.973 400.226 218.798 395.261 218.798 395.261Z" fill="black"/>
<path opacity="0.1" d="M193.987 389.971C194.721 390.665 208.132 391.969 207.029 393.238C205.925 394.507 195.09 396.974 195.09 396.974L193.987 389.971Z" fill="black"/>
<path opacity="0.1" d="M191.785 367.145C191.785 367.694 194.541 384.787 195.28 385.521C196.019 386.255 202.076 386.989 202.076 386.989L191.785 367.145Z" fill="black"/>
<path d="M211.782 133.51C209.151 136.452 208.013 140.623 204.947 143.11C203.084 144.609 200.728 145.323 198.561 146.342C196.394 147.361 194.247 148.915 193.602 151.222C192.883 153.82 194.272 156.472 195.001 159.069C195.754 161.757 195.799 164.564 195.844 167.376C195.894 170.778 195.949 174.179 195.889 177.581C195.799 182.88 195.36 188.425 192.549 192.915C202.7 196.147 213.495 196.586 224.14 197.001C226.186 197.147 228.241 197.095 230.277 196.846C232.041 196.495 233.786 196.053 235.505 195.523C238.903 194.623 242.405 194.175 245.92 194.189C247.453 194.189 249.016 194.284 250.494 193.884C251.972 193.485 253.395 192.461 253.794 190.982C254.149 189.653 253.63 188.24 252.951 187.046C251.712 184.868 249.955 183.05 248.627 180.902C247.271 178.634 246.466 176.078 246.278 173.442C246.09 170.805 246.523 168.161 247.543 165.723C248.721 162.98 250.619 160.593 251.777 157.846C252.964 154.896 253.279 151.668 252.686 148.544C252.093 145.42 250.617 142.532 248.432 140.223C244.402 136.098 238.62 134.499 233.088 133.65C230.758 133.375 228.536 132.516 226.627 131.152C224.505 129.754 221.754 129.414 219.267 129.724C216.398 130.045 213.742 131.39 211.782 133.51Z" fill="#3F3D56"/>
<g opacity="0.1">
<path opacity="0.1" d="M247.698 162.841C246.68 165.248 246.244 167.861 246.425 170.468C246.536 168.604 246.967 166.772 247.698 165.054C248.871 162.311 250.769 159.924 251.927 157.177C252.874 154.883 253.272 152.399 253.09 149.924C252.987 151.659 252.594 153.364 251.927 154.969C250.769 157.716 248.871 160.099 247.698 162.841Z" fill="black"/>
<path opacity="0.1" d="M195.994 166.697C196.024 168.655 196.054 170.618 196.059 172.576C196.059 169.879 196.034 167.186 195.994 164.494C195.954 161.702 195.904 158.875 195.15 156.182C194.651 154.474 193.912 152.741 193.652 151.018C193.208 153.465 194.471 155.948 195.15 158.39C195.904 161.057 195.954 163.905 195.994 166.697Z" fill="black"/>
<path opacity="0.1" d="M250.664 191.027C249.166 191.432 247.628 191.342 246.095 191.332C242.582 191.31 239.082 191.75 235.684 192.641C233.965 193.169 232.22 193.609 230.457 193.959C228.419 194.213 226.363 194.266 224.315 194.119C214.029 193.715 203.599 193.28 193.747 190.338C193.455 190.991 193.121 191.625 192.749 192.236C202.9 195.463 213.695 195.907 224.335 196.322C226.383 196.469 228.439 196.415 230.477 196.162C232.234 195.815 233.972 195.377 235.684 194.849C239.075 193.954 242.568 193.509 246.075 193.525C247.608 193.525 249.166 193.62 250.644 193.215C252.122 192.811 253.545 191.797 253.944 190.318C254.112 189.633 254.095 188.916 253.894 188.24C253.45 189.639 252.077 190.613 250.664 191.027Z" fill="black"/>
</g>
<path d="M235.874 185.108C235.505 185.937 233.947 193.1 233.577 193.834C233.208 194.569 231.191 206.322 231.006 206.981C230.821 207.64 217.709 204.224 217.709 204.224L209.815 197.605L201.701 189.529C201.701 189.529 201.462 182.241 207.438 179.903C207.845 179.744 208.262 179.614 208.687 179.514C215.937 177.771 215.208 155.718 215.208 155.718L230.087 162.146C230.087 162.146 227.331 175.013 227.426 177.496C227.451 178.33 228.105 178.849 228.959 179.164C230.279 179.54 231.653 179.688 233.023 179.604C233.023 179.604 236.244 184.284 235.874 185.108Z" fill="#FBBEBE"/>
<path d="M262.512 209.274L264.624 209.828C264.624 209.828 266.187 212.206 262.512 214.419C260.179 215.836 257.939 217.403 255.807 219.109L244.947 222.415L242.854 215.847L252.961 208.175L262.512 209.274Z" fill="#08517A"/>
<path opacity="0.1" d="M262.512 209.274L264.624 209.828C264.624 209.828 266.187 212.206 262.512 214.419C260.179 215.836 257.939 217.403 255.807 219.109L244.947 222.415L242.854 215.847L252.961 208.175L262.512 209.274Z" fill="black"/>
<path d="M183.257 215.617L179.033 219.753C179.033 219.753 186.652 228.574 192.514 229.124C198.376 229.673 202.156 222.415 202.156 222.415L197.083 214.423L183.257 215.617Z" fill="#08517A"/>
<path opacity="0.1" d="M183.257 215.617L179.033 219.753C179.033 219.753 186.652 228.574 192.514 229.124C198.376 229.673 202.156 222.415 202.156 222.415L197.083 214.423L183.257 215.617Z" fill="black"/>
<path opacity="0.1" d="M223.381 170.128C231.497 170.128 238.076 163.547 238.076 155.428C238.076 147.31 231.497 140.728 223.381 140.728C215.266 140.728 208.687 147.31 208.687 155.428C208.687 163.547 215.266 170.128 223.381 170.128Z" fill="black"/>
<path d="M223.381 169.024C231.497 169.024 238.076 162.443 238.076 154.324C238.076 146.206 231.497 139.624 223.381 139.624C215.266 139.624 208.687 146.206 208.687 154.324C208.687 162.443 215.266 169.024 223.381 169.024Z" fill="#FBBEBE"/>
<path opacity="0.1" d="M249.745 277.734C246.399 278.118 243.103 278.856 239.913 279.937C234.421 281.765 191.381 279.967 190.781 279.937C190.781 278.898 190.781 278.284 190.781 278.284L192.888 273.049L217.854 269.922H229.797C229.797 269.922 247.773 274.148 249.63 275.971C249.705 277.07 249.745 277.734 249.745 277.734Z" fill="black"/>
<path opacity="0.1" d="M235.874 185.108C235.505 185.937 233.947 193.1 233.577 193.834C233.208 194.569 231.191 206.322 231.006 206.981C230.821 207.64 217.709 204.224 217.709 204.224L209.815 197.605L201.701 189.529C201.701 189.529 201.462 182.241 207.438 179.903L222.278 196.971L228.959 179.164C230.279 179.54 231.653 179.688 233.023 179.604C233.023 179.604 236.244 184.284 235.874 185.108Z" fill="black"/>
<path d="M222.278 197.521L207.089 180.038C206.2 179.47 205.184 179.133 204.132 179.055C203.08 178.977 202.025 179.163 201.062 179.594C197.662 181.067 193.438 182.261 192.334 182.995C191.231 183.73 187.096 188.275 187.096 188.275L199.409 220.497L193.987 241.721C193.987 241.721 194.816 252.565 192.704 256.516C191.418 259.042 190.815 261.861 190.956 264.693C190.956 264.693 191.6 269.933 190.866 272.685C190.437 274.525 190.405 276.435 190.771 278.289C190.771 278.289 234.406 280.127 239.914 278.289C243.102 277.205 246.398 276.466 249.745 276.086C249.745 276.086 248.746 257.705 247.748 253.294C246.749 248.884 248.577 232.071 248.577 232.071L247.383 214.059L254.543 195.578C254.543 195.578 250.664 183.73 246.619 182.536C246.619 182.536 239.274 180.787 237.712 179.963C236.149 179.139 231.555 178.4 231.555 178.4L229.143 179.209L222.278 197.521Z" fill="#08517A"/>
<path opacity="0.1" d="M243.47 213.451L211.508 211.276C210.699 211.221 209.999 211.833 209.944 212.642L206.512 263.124C206.457 263.933 207.068 264.634 207.877 264.689L239.839 266.863C240.648 266.918 241.348 266.307 241.403 265.498L244.835 215.015C244.89 214.206 244.279 213.506 243.47 213.451Z" fill="black"/>
<path d="M244.57 212.354L212.608 210.18C211.8 210.125 211.099 210.737 211.044 211.546L207.613 262.028C207.558 262.837 208.169 263.538 208.978 263.593L240.94 265.767C241.749 265.822 242.449 265.211 242.504 264.401L245.935 213.919C245.99 213.11 245.379 212.409 244.57 212.354Z" fill="#3F3D56"/>
<path d="M243.516 216.311L213.118 214.244L209.994 260.201L240.392 262.269L243.516 216.311Z" fill="white"/>
<path opacity="0.1" d="M240.79 228.042L215.959 226.303L215.475 233.226L240.306 234.965L240.79 228.042Z" fill="black"/>
<path opacity="0.1" d="M239.891 255.554L235.951 255.286L235.706 258.894L239.646 259.162L239.891 255.554Z" fill="black"/>
<path opacity="0.1" d="M236.005 246.846L215.834 245.474L215.589 249.082L235.759 250.454L236.005 246.846Z" fill="black"/>
<path d="M239.753 214.593L218.751 213.165L218.374 218.711L239.376 220.14L239.753 214.593Z" fill="#3F3D56"/>
<path opacity="0.1" d="M239.753 214.593L218.751 213.165L218.374 218.711L239.376 220.14L239.753 214.593Z" fill="black"/>
<path opacity="0.1" d="M224.115 276.721C224.115 276.721 223.931 303.923 216.766 319.542C216.766 319.542 225.404 298.958 225.404 298.134C225.404 297.31 230.177 288.669 228.899 286.096C227.621 283.524 224.115 276.721 224.115 276.721Z" fill="black"/>
<path opacity="0.1" d="M224.505 150.648C224.23 148.241 224.82 145.814 226.168 143.8C226.007 145.818 226.578 147.827 227.775 149.459C228.972 151.091 230.716 152.238 232.689 152.691C232.52 152.545 232.4 152.351 232.344 152.136C232.288 151.92 232.298 151.692 232.374 151.482C233.398 152.641 234.181 154.015 235.34 155.034C236.498 156.053 238.236 156.662 239.599 155.938C241.451 154.939 241.471 152.307 240.992 150.259C239.963 145.897 237.853 141.865 234.856 138.535C234.108 137.529 233.137 136.709 232.019 136.141C230.902 135.572 229.668 135.27 228.414 135.259C225.578 135.039 222.632 135.289 220.091 136.562C218.661 137.343 217.321 138.28 216.096 139.355L209.106 145.059C208.434 145.544 207.858 146.15 207.408 146.847C207.108 147.43 206.928 148.067 206.879 148.72C206.701 150.588 207.046 152.469 207.877 154.152C208.708 155.834 209.991 157.252 211.583 158.246C211.549 156.769 211.955 155.316 212.749 154.071C213.543 152.825 214.689 151.845 216.042 151.253C216.253 151.43 216.425 151.65 216.545 151.899C216.664 152.148 216.729 152.42 216.736 152.696L218.209 150.069C218.428 149.591 218.773 149.181 219.207 148.885C220.116 148.385 221.249 148.975 222.023 149.679C222.797 150.383 223.551 151.263 224.59 151.372L224.63 147.461" fill="black"/>
<path d="M224.505 150.098C224.23 147.689 224.819 145.26 226.168 143.245C225.718 147.241 228.729 151.367 232.694 152.136C232.525 151.991 232.405 151.799 232.348 151.584C232.292 151.369 232.303 151.141 232.379 150.933C233.403 152.091 234.186 153.46 235.345 154.484C236.503 155.508 238.241 156.112 239.604 155.383C241.456 154.384 241.476 151.752 240.997 149.709C239.968 145.347 237.858 141.316 234.861 137.986C233.93 136.852 232.758 135.94 231.43 135.318C230.469 134.963 229.458 134.757 228.434 134.709C225.598 134.489 222.652 134.734 220.111 136.008C218.682 136.792 217.342 137.73 216.116 138.805L209.126 144.509C208.452 144.993 207.876 145.599 207.428 146.297C207.128 146.88 206.948 147.517 206.899 148.17C206.721 150.038 207.067 151.918 207.897 153.6C208.728 155.281 210.011 156.698 211.603 157.691C211.57 156.215 211.977 154.762 212.771 153.517C213.564 152.272 214.71 151.291 216.061 150.698C216.273 150.876 216.444 151.096 216.563 151.345C216.683 151.594 216.748 151.865 216.755 152.141L218.223 149.524C218.441 149.045 218.787 148.636 219.222 148.34C220.131 147.841 221.264 148.43 222.038 149.134C222.812 149.839 223.566 150.713 224.605 150.828L224.645 146.912" fill="#3F3D56"/>
<path d="M231.465 242.82C230.182 242.171 208.961 245.482 208.961 245.482C208.961 245.482 205.466 244.483 197.018 243.095C188.569 241.706 188.03 233.444 188.03 233.444L187.106 216.906L189.958 214.409L202.171 222.401C202.171 222.401 202.36 226.442 202.171 227.171C202.051 227.67 201.731 228.265 201.761 228.669C201.771 228.779 201.816 228.882 201.89 228.964C201.964 229.045 202.062 229.099 202.171 229.119C203 229.329 214.294 231.157 214.294 231.157C214.294 231.157 240.473 229.364 246.999 238.185C247.516 238.832 247.907 239.571 248.152 240.362C249.77 246.391 232.629 243.394 231.465 242.82Z" fill="#FBBEBE"/>
<path opacity="0.1" d="M248.167 240.397C247.169 240.842 246.549 241.162 246.549 241.162C246.549 241.162 237.182 240.887 231.92 238.979C226.657 237.071 220.261 237.41 220.261 237.41C220.261 237.41 198.331 233.634 201.731 228.704C201.74 228.814 201.786 228.917 201.86 228.998C201.934 229.08 202.032 229.134 202.141 229.154C202.97 229.363 214.264 231.192 214.264 231.192C214.264 231.192 240.443 229.398 246.969 238.22C247.502 238.863 247.908 239.602 248.167 240.397Z" fill="black"/>
<path d="M257.275 211.297C257.275 211.297 258.563 220.393 258.653 221.132C258.743 221.871 259.207 230.777 258.653 231.791C258.098 232.805 257.275 234.454 257.275 234.454C257.275 234.454 258.193 236.382 254.518 237.121C250.843 237.86 246.529 240.058 246.529 240.058C246.529 240.058 237.157 239.783 231.925 237.855C226.692 235.927 220.261 236.292 220.261 236.292C220.261 236.292 192.424 231.511 204.368 225.677C216.311 219.843 224.759 227.745 224.759 227.745L238.076 226.921C238.076 226.921 243.039 223.884 244.417 224.164C245.39 224.288 246.379 224.128 247.263 223.704L247.358 214.054L257.275 211.297Z" fill="#FBBEBE"/>
<path opacity="0.1" d="M189.748 188.969L187.081 188.83L179.003 220.298C179.003 220.298 187.726 218.09 191.485 220.298C195.245 222.506 202.141 222.96 202.141 222.96L199.569 197.875L189.748 188.969Z" fill="black"/>
<path d="M189.748 188.415L187.081 188.275L179.003 219.743C179.003 219.743 187.726 217.535 191.485 219.743C195.245 221.951 202.141 222.405 202.141 222.405L199.569 197.321L189.748 188.415Z" fill="#08517A"/>
<path opacity="0.1" d="M250.848 195.308L254.518 196.137C254.518 196.137 263.89 209.624 264.624 210.378C265.358 211.132 261.129 213.874 259.387 213.874C257.644 213.874 249.101 214.873 246.619 217.181C244.138 219.489 245.171 207.875 245.171 207.611C245.171 207.346 248.252 200.018 248.252 200.018L250.848 195.308Z" fill="black"/>
<path d="M250.848 194.758L254.518 195.582C254.518 195.582 263.89 209.094 264.624 209.828C265.358 210.562 261.129 213.325 259.387 213.325C257.644 213.325 249.101 214.324 246.619 216.631C244.138 218.939 245.171 207.326 245.171 207.061C245.171 206.796 248.272 199.444 248.272 199.444L250.848 194.758Z" fill="#08517A"/>
<g opacity="0.1">
<path opacity="0.1" d="M226.143 143.29C226.121 142.907 226.129 142.523 226.168 142.142C225.407 143.283 224.884 144.565 224.63 145.913V147.072C224.63 147.072 224.63 147.047 224.63 147.032V147.306C224.63 148.116 224.63 148.93 224.605 149.739H224.535V150.114C224.535 149.984 224.535 149.859 224.51 149.729C223.511 149.569 222.797 148.73 222.053 148.061C221.309 147.391 220.146 146.752 219.237 147.266C218.802 147.562 218.456 147.971 218.238 148.45L216.756 151.068C216.749 150.792 216.684 150.521 216.564 150.273C216.444 150.025 216.273 149.805 216.062 149.629C214.709 150.221 213.563 151.202 212.769 152.447C211.975 153.692 211.569 155.145 211.603 156.622C210.238 155.767 209.097 154.599 208.273 153.216C207.449 151.832 206.966 150.272 206.864 148.665C206.777 150.46 207.171 152.245 208.004 153.837C208.837 155.429 210.079 156.769 211.603 157.721C211.57 156.245 211.977 154.792 212.771 153.547C213.564 152.302 214.71 151.321 216.062 150.728C216.273 150.906 216.444 151.126 216.563 151.375C216.683 151.624 216.748 151.895 216.756 152.171L218.224 149.554C218.441 149.075 218.787 148.666 219.222 148.37C220.131 147.871 221.264 148.46 222.038 149.165C222.812 149.869 223.566 150.743 224.605 150.858C224.605 149.579 224.618 148.304 224.645 147.032C224.89 145.697 225.399 144.425 226.143 143.29Z" fill="black"/>
<path opacity="0.1" d="M224.455 148.32C224.48 147.981 224.52 147.641 224.57 147.321L224.625 145.943C224.475 146.726 224.418 147.524 224.455 148.32Z" fill="black"/>
<path opacity="0.1" d="M239.604 154.28C238.241 155.009 236.503 154.399 235.345 153.381C234.186 152.362 233.403 150.988 232.379 149.829C232.303 150.039 232.293 150.267 232.349 150.482C232.405 150.698 232.525 150.892 232.694 151.038C232.594 151.038 232.499 150.988 232.404 150.963C233.403 152.112 234.196 153.46 235.345 154.459C236.493 155.458 238.241 156.088 239.604 155.359C240.967 154.629 241.357 152.921 241.237 151.258C241.147 152.566 240.677 153.7 239.604 154.28Z" fill="black"/>
<path opacity="0.1" d="M232.374 150.953C230.704 150.498 229.213 149.543 228.101 148.216C226.99 146.889 226.309 145.254 226.153 143.53C225.868 147.451 228.824 151.382 232.694 152.137C232.529 151.993 232.41 151.804 232.353 151.593C232.296 151.383 232.304 151.16 232.374 150.953Z" fill="black"/>
</g>
<path d="M472.163 232.591C472.163 232.591 470.195 232.316 470.195 229.454C470.195 226.592 468.787 221.232 468.787 221.232C468.787 221.232 467.569 211.906 465.886 210.428C464.204 208.949 462.042 200.268 462.042 200.268C462.042 200.268 461.672 195.558 460.918 194.544C460.164 193.53 459.146 191.047 457.643 187.506C456.14 183.965 449.889 181.537 449.889 181.537C449.889 181.537 438.559 174.964 435.349 172.821C435.055 172.643 434.781 172.436 434.53 172.201C433.971 171.472 431.534 171.457 431.534 171.457C431.279 169.844 431.035 167.996 430.955 166.322C430.955 166.143 430.955 165.963 430.955 165.783C434.535 163.666 437.231 160.328 438.549 156.382C438.609 156.193 438.659 155.998 438.714 155.803C438.933 155.735 439.135 155.622 439.308 155.471C439.48 155.319 439.618 155.133 439.713 154.924C439.997 154.28 440.007 153.53 440.367 152.926C440.786 152.217 441.585 151.837 442.214 151.308C443.802 149.954 444.211 147.681 444.136 145.618C444.087 143.94 443.817 142.252 443.922 140.588C443.922 140.448 443.922 140.309 443.952 140.169C443.982 139.924 444.017 139.669 444.062 139.43C444.306 138.191 444.841 137.022 445.14 135.793C445.44 134.564 445.47 133.181 444.771 132.122C443.747 130.568 441.615 130.259 439.743 130.124C437.62 129.944 435.748 130.174 434.365 128.411C433.731 127.49 433.015 126.627 432.228 125.833C431.948 125.574 429.232 123.91 429.232 123.805C426.574 122.569 423.559 122.337 420.744 123.151C419.331 123.561 418.008 124.23 416.575 124.565C413.499 125.294 409.954 124.505 407.337 126.268C405.879 127.267 405.006 128.86 404.187 130.404C403.521 131.676 402.845 132.949 402.159 134.225C401.051 136.318 399.933 138.446 399.468 140.763C399.371 141.269 399.309 141.782 399.283 142.297C399.283 142.481 399.283 142.666 399.283 142.851C399.283 142.931 399.283 143.011 399.283 143.091C399.283 143.261 399.283 143.43 399.313 143.59C399.343 143.75 399.313 143.795 399.348 143.9C399.383 144.005 399.393 144.24 399.423 144.399C399.453 144.559 399.513 144.844 399.573 145.059C399.573 145.154 399.633 145.244 399.663 145.339C399.693 145.433 399.773 145.673 399.838 145.838C399.903 146.003 399.908 146.013 399.948 146.098C400.022 146.273 400.112 146.442 400.202 146.597C400.242 146.662 400.272 146.727 400.312 146.792C400.449 147.026 400.602 147.25 400.771 147.461C401.835 148.795 403.413 149.644 404.576 150.893C404.576 150.943 404.576 150.993 404.576 151.043C404.576 151.178 404.576 151.313 404.576 151.452C404.647 154.238 405.398 156.963 406.762 159.392C408.127 161.821 410.064 163.879 412.405 165.388C412.405 165.578 412.43 165.773 412.44 165.968C412.538 167.449 412.519 168.935 412.385 170.413C412.182 170.174 411.927 169.984 411.64 169.856C411.353 169.728 411.042 169.666 410.728 169.674C410.513 169.663 410.298 169.682 410.089 169.729L410.044 169.694V169.739C408.945 170.009 407.592 171.153 406.299 174.404C406.299 174.404 402.364 178.84 399.368 178.655C396.372 178.47 388.788 183.275 388.788 183.275C388.788 183.275 381.388 188.075 379.8 192.97C378.913 195.747 377.847 198.463 376.61 201.102L367.437 219.943L365.755 234.928C365.755 234.928 366.689 241.576 366.504 242.595C366.319 243.614 370.343 252.755 370.343 252.755C370.343 252.755 383.64 276.122 389.073 277.32L389.462 277.051C389.696 277.168 389.942 277.259 390.196 277.32L391.314 276.536C391.384 277.414 391.354 278.297 391.225 279.169C390.481 281.481 391.509 296.536 392.817 299.488C394.126 302.44 393.661 341.151 393.661 341.151L393.477 344.563C393.477 344.563 393.476 344.672 393.521 344.862L393.477 345.671L393.611 345.741C393.751 346.827 393.706 347.928 393.477 348.998C393.007 350.497 392.817 354.727 392.817 354.727C392.817 354.727 389.073 378.643 390.85 383.448C392.628 388.253 394.131 393.518 394.131 393.518C394.131 393.518 396.003 399.512 394.22 400.511C392.438 401.51 387.39 403.283 388.418 405.776C389.367 408.083 392.967 414.267 393.501 415.171L393.457 415.671L392.723 423.628C392.841 424.678 393.126 425.703 393.566 426.665C394.37 428.403 395.928 430.196 398.904 430.001C399.403 429.966 399.978 429.911 400.542 429.836C405.979 429.102 412.67 426.675 412.67 426.675C412.323 426.455 412.006 426.191 411.726 425.89C411.459 425.631 411.247 425.321 411.104 424.977C410.961 424.634 410.889 424.265 410.892 423.892C410.972 422.439 408.261 415.541 407.582 413.838L407.427 413.458C407.427 413.458 413.609 406.99 412.58 401.265C412.58 401.265 405.74 397.269 407.991 395.072C410.243 392.874 414.268 386.58 414.268 386.58C414.268 386.58 414.452 363.029 414.268 359.517C414.075 357.075 414.191 354.618 414.612 352.205C414.687 351.845 414.777 351.491 414.872 351.136C417.989 351.606 421.137 351.845 424.289 351.85C425.441 351.85 426.606 351.827 427.784 351.78C427.784 352.113 427.799 352.473 427.829 352.859C428.089 358.693 428.573 368.928 428.967 372.729C429.527 378.174 432.617 392.864 432.617 392.864C432.617 392.864 426.721 396.645 433.646 405.981C433.646 405.981 433.646 409.357 433.187 409.852C432.696 411.453 432.301 413.083 432.003 414.732C431.714 416.485 431.594 418.268 432.063 419.187C433.187 421.395 439.927 421.215 439.927 421.215C439.981 421.203 440.037 421.194 440.092 421.19C441.364 421.056 442.651 421.176 443.876 421.545C445.101 421.914 446.24 422.523 447.227 423.338C449.789 425.396 459.505 424.497 464.773 423.838C466.835 423.573 468.213 423.338 468.213 423.338C468.28 423.104 468.303 422.861 468.283 422.619C468.228 421.325 467.215 418.488 460.344 415.955C460.344 415.955 453.883 411.61 453.973 407.824H453.828H453.084C453.554 407.809 453.883 407.809 453.883 407.809C453.883 407.809 451.352 398.573 452.385 397.819C453.419 397.065 450.323 386.83 450.323 386.83C450.323 386.83 448.55 369.647 448.451 368.448C448.457 367.415 448.615 366.389 448.92 365.401L448.451 355.976C448.451 355.976 448.361 352.844 448.451 351.825C448.441 350.941 448.371 350.058 448.241 349.183C448.196 348.833 448.151 348.469 448.101 348.109C450.523 347.495 452.095 346.93 452.095 346.93L451.816 314.138C453.873 310.142 454.253 301.371 454.243 295.157C454.243 291.161 454.063 288.204 454.063 288.204L456.874 283.614C456.874 283.614 457.523 278.12 456.494 276.916C456.04 276.371 456.245 275.807 456.619 275.342C456.816 275.181 457.025 275.034 457.243 274.903C457.219 274.868 457.197 274.831 457.178 274.793C457.375 274.629 457.583 274.48 457.803 274.348C457.803 274.348 456.804 272.8 457.698 272.146C458.537 272.715 459.286 273.17 459.855 273.494C459.815 273.859 459.775 274.069 459.775 274.069L460.015 273.569C460.564 273.879 460.898 274.069 460.898 274.069C460.898 274.069 465.302 265.293 465.207 264.004C465.113 262.715 468.203 257.261 468.203 257.261C468.203 257.261 468.578 254.394 470.265 253.195C471.953 251.996 471.574 243.31 471.574 243.31C471.574 243.31 472.043 238.784 473.166 236.941C474.29 235.098 472.163 232.591 472.163 232.591ZM387.899 228.739L387.984 230.832C387.485 230.028 387.125 229.454 387.125 229.454L387.899 228.739Z" fill="url(#paint1_linear)"/>
<path d="M461.158 270.272L460.08 274.868C460.08 274.868 451.441 270.447 449.889 264.853C448.336 259.258 452.49 257.125 452.49 257.125L460.544 260.532L461.158 270.272Z" fill="white"/>
<path opacity="0.1" d="M461.158 270.272L460.08 274.868C460.08 274.868 451.441 270.447 449.889 264.853C448.336 259.258 452.49 257.125 452.49 257.125L460.544 260.532L461.158 270.272Z" fill="black"/>
<path d="M412.68 426.669C412.68 426.669 404.691 429.606 399.199 429.976C396.283 430.171 394.75 428.383 393.961 426.659C393.532 425.709 393.253 424.698 393.132 423.662L393.856 415.745L394.235 411.535L405.904 408.498L407.557 413.557L407.712 413.937C408.371 415.63 411.037 422.493 410.957 423.927C410.951 424.298 411.02 424.666 411.16 425.009C411.299 425.353 411.508 425.664 411.771 425.925C412.041 426.211 412.347 426.461 412.68 426.669Z" fill="white"/>
<path d="M467.225 422.643C467.245 422.885 467.222 423.129 467.155 423.363C467.155 423.363 450.068 426.21 446.573 423.363C445.591 422.531 444.446 421.913 443.211 421.55C441.976 421.186 440.679 421.084 439.403 421.25C439.403 421.25 432.792 421.43 431.689 419.252C431.229 418.338 431.349 416.564 431.634 414.821C431.925 413.182 432.311 411.56 432.792 409.966L433.057 409.756L434.63 408.493L453.044 407.948H453.184C453.094 411.714 459.43 416.035 459.43 416.035C466.176 418.533 467.17 421.355 467.225 422.643Z" fill="white"/>
<path opacity="0.1" d="M467.23 422.643C467.247 422.886 467.222 423.129 467.155 423.363C467.155 423.363 450.068 426.21 446.578 423.363C445.595 422.53 444.449 421.913 443.214 421.549C441.978 421.185 440.68 421.083 439.403 421.25C439.403 421.25 432.787 421.43 431.684 419.252C431.229 418.338 431.344 416.565 431.629 414.816C434.175 415.071 438.195 415.705 439.773 417.224C442.159 419.522 446.204 421.819 448.68 422.004C450.638 422.124 462.276 422.494 467.23 422.643Z" fill="black"/>
<path d="M424.534 189.963C417.943 187.401 409.464 178.934 411.582 174.978C412.049 173.979 412.329 172.902 412.405 171.801C412.542 170.307 412.562 168.804 412.465 167.306C412.317 164.851 412.022 162.408 411.582 159.988C411.582 159.988 432.158 160.453 430.96 163.485C430.61 164.379 430.55 165.922 430.65 167.646C430.75 169.369 430.995 171.332 431.254 172.985C431.609 175.248 431.973 176.981 431.973 176.981C431.973 176.981 430.71 178.744 429.976 178.839C429.242 178.934 433.991 193.634 424.534 189.963Z" fill="#CF6F80"/>
<path opacity="0.1" d="M407.692 413.912L407.537 414.082C401.386 406.639 393.946 415.92 393.946 415.92L393.836 415.72L394.215 411.51L405.884 408.473L407.537 413.533L407.692 413.912Z" fill="black"/>
<path opacity="0.1" d="M453.194 408.473C453.194 408.473 448.7 408.383 446.304 410.501C443.907 412.619 432.323 410.955 432.822 410.501C432.968 410.27 433.057 410.008 433.082 409.736L434.655 408.473L453.069 407.928C453.139 408.278 453.194 408.473 453.194 408.473Z" fill="black"/>
<path d="M415.346 350.027C415.012 350.855 414.758 351.713 414.587 352.589C414.171 354.99 414.055 357.433 414.243 359.862C414.428 363.358 414.243 386.79 414.243 386.79C414.243 386.79 410.293 393.038 408.086 395.241C405.879 397.444 412.58 401.4 412.58 401.4C413.579 407.099 407.527 413.533 407.527 413.533C401.376 406.09 393.936 415.366 393.936 415.366C393.936 415.366 389.891 408.373 388.883 405.875C387.874 403.378 392.832 401.655 394.575 400.636C396.318 399.617 394.485 393.643 394.485 393.643C394.485 393.643 393.017 388.403 391.27 383.623C389.522 378.843 393.197 355.052 393.197 355.052C393.197 355.052 393.387 350.821 393.841 349.347C394.068 348.284 394.113 347.189 393.976 346.111C393.946 345.746 393.911 345.446 393.886 345.236C393.861 345.027 393.841 344.937 393.841 344.937L393.911 344.817L396.407 340.162C396.407 340.162 416.545 347.095 415.346 350.027Z" fill="#08517A"/>
<path d="M453.194 407.923C453.194 407.923 448.7 407.828 446.304 409.921C443.907 412.014 432.323 410.381 432.822 409.921C433.321 409.462 433.277 406.065 433.277 406.065C426.481 396.78 432.278 393.013 432.278 393.013C432.278 393.013 429.247 378.403 428.698 372.984C428.313 369.202 427.839 358.998 427.584 353.219C427.475 350.721 427.41 348.998 427.41 348.998L432.912 347.904L433.626 347.764L447.018 345.072C447.018 345.072 447.387 347.569 447.637 349.612C447.763 350.484 447.831 351.364 447.841 352.245C447.757 353.244 447.841 356.375 447.841 356.375L448.301 365.746C448.004 366.73 447.85 367.75 447.841 368.778C447.936 369.977 449.679 387.064 449.679 387.064C449.679 387.064 452.71 397.264 451.676 397.998C450.643 398.733 453.194 407.923 453.194 407.923Z" fill="#08517A"/>
<path opacity="0.1" d="M430.96 163.5C430.61 164.394 430.55 165.937 430.65 167.661C427.894 169.321 424.726 170.17 421.509 170.11C418.292 170.05 415.158 169.083 412.465 167.321C412.317 164.866 412.022 162.423 411.582 160.003C411.582 160.003 432.158 160.468 430.96 163.5Z" fill="black"/>
<path d="M438.904 152.471C438.958 157.003 437.21 161.371 434.045 164.614C430.88 167.857 426.557 169.709 422.027 169.764C417.497 169.818 413.131 168.07 409.889 164.904C406.647 161.737 404.795 157.413 404.741 152.881C404.741 152.741 404.741 152.611 404.741 152.471C404.741 147.938 406.541 143.59 409.745 140.385C412.95 137.179 417.296 135.378 421.827 135.378C426.359 135.378 430.705 137.179 433.909 140.385C437.114 143.59 438.914 147.938 438.914 152.471H438.904Z" fill="#CF6F80"/>
<path opacity="0.1" d="M424.534 189.963C417.943 187.401 409.464 178.935 411.582 174.979C412.049 173.979 412.329 172.902 412.405 171.802L421.428 179.224L427.01 183.805L431.254 173.001C431.609 175.263 431.973 176.997 431.973 176.997C431.973 176.997 430.71 178.76 429.976 178.855C429.242 178.95 433.991 193.635 424.534 189.963Z" fill="black"/>
<path d="M447.866 222.765L440.332 349.387L430.505 350.032L405.056 276.611L409.23 189.444L410.114 171.027L421.428 180.323L427.01 184.903L431.379 173.78L439.503 180.862L447.866 222.765Z" fill="#08517A"/>
<path opacity="0.1" d="M415.346 350.027C415.012 350.855 414.758 351.713 414.587 352.589C407.43 351.487 400.479 349.316 393.966 346.151L393.831 346.081L393.876 345.277V344.857L396.372 340.202C396.372 340.202 416.545 347.095 415.346 350.027Z" fill="black"/>
<path opacity="0.1" d="M433.077 352.609C431.249 352.922 429.405 353.133 427.554 353.243C427.445 350.746 427.38 349.023 427.38 349.023L432.912 347.904L433.077 352.609Z" fill="black"/>
<path opacity="0.1" d="M447.657 349.612C444.107 350.536 438.619 351.575 433.716 350.926L433.646 347.764L447.038 345.072C447.038 345.072 447.392 347.549 447.657 349.612Z" fill="black"/>
<path opacity="0.1" d="M433.626 351.505C413.154 355.002 394.405 344.977 394.405 344.977L394.585 341.58C394.585 341.58 395.049 303.074 393.761 300.122C392.473 297.17 391.469 282.22 392.198 279.937C392.927 277.655 389.537 243.189 389.537 243.189L388.988 229.204L368.87 221.027L377.858 202.281C379.072 199.653 380.116 196.95 380.984 194.189C382.547 189.319 389.802 184.539 389.802 184.539C389.802 184.539 397.241 179.763 400.182 179.943C403.123 180.123 406.978 175.718 406.978 175.718C409.824 168.46 412.4 171.722 412.4 171.722C412.4 172.071 412.4 171.722 412.261 172.795C411.262 180.762 428.408 205.937 428.653 206.387L430.306 246.176L431.958 296.531L433.626 351.505Z" fill="black"/>
<path d="M433.077 351.505C412.605 355.002 393.851 344.977 393.851 344.977L394.036 341.58C394.036 341.58 394.495 303.074 393.207 300.122C391.919 297.17 390.915 282.205 391.649 279.902C392.383 277.6 388.973 243.169 388.973 243.169L388.418 229.184L368.306 221.007L377.294 202.261C378.505 199.634 379.549 196.933 380.42 194.174C381.982 189.319 389.262 184.534 389.262 184.534C389.262 184.534 396.702 179.758 399.638 179.938C402.574 180.118 406.449 175.718 406.449 175.718C409.3 168.46 412.44 171.722 412.44 171.722C412.44 172.071 412.141 172.221 412.3 172.795C414.497 180.523 427.899 205.937 428.144 206.387L429.796 246.176L431.414 296.556L433.077 351.505Z" fill="white"/>
<path opacity="0.1" d="M427.559 207.511C425.358 206.592 413.694 193.27 413.694 193.27V190.238C413.269 189.239 410.743 189.848 408.701 190.548L409.579 172.131L410.578 172.96C412.76 180.683 427.32 207.066 427.559 207.511Z" fill="black"/>
<path d="M428.114 206.412C425.907 205.488 414.243 192.171 414.243 192.171V189.134C413.818 188.135 411.297 188.744 409.25 189.444L410.114 171.047L411.112 171.872C413.314 179.584 427.869 205.962 428.114 206.412Z" fill="white"/>
<path opacity="0.1" d="M394.405 272.844C394.68 272.844 408.641 271.376 408.641 271.376C408.641 271.376 417.094 288.009 416.54 292.05C415.985 296.091 414.982 299.677 411.582 299.043C408.181 298.409 393.282 299.543 393.282 299.543L394.405 272.844Z" fill="black"/>
<path d="M393.851 271.741C394.131 271.741 408.091 270.272 408.091 270.272C408.091 270.272 416.54 286.931 415.99 290.927C415.441 294.923 414.428 298.554 411.032 297.92C407.637 297.285 392.728 298.419 392.728 298.419L393.851 271.741Z" fill="white"/>
<path d="M404.372 263.954C404.372 263.954 417.184 270.847 417.458 272.945C417.733 275.042 410.937 272.025 409.469 271.656C408.503 271.426 407.519 271.272 406.529 271.196L396.737 271.461L404.372 263.954Z" fill="#CF6F80"/>
<path opacity="0.1" d="M423.979 208.37C424.724 208.37 425.328 207.766 425.328 207.021C425.328 206.276 424.724 205.672 423.979 205.672C423.235 205.672 422.631 206.276 422.631 207.021C422.631 207.766 423.235 208.37 423.979 208.37Z" fill="black"/>
<path d="M423.979 207.82C424.724 207.82 425.328 207.217 425.328 206.472C425.328 205.727 424.724 205.123 423.979 205.123C423.235 205.123 422.631 205.727 422.631 206.472C422.631 207.217 423.235 207.82 423.979 207.82Z" fill="#3F3D56"/>
<path opacity="0.1" d="M426.461 266.751C427.206 266.751 427.809 266.147 427.809 265.402C427.809 264.657 427.206 264.053 426.461 264.053C425.716 264.053 425.113 264.657 425.113 265.402C425.113 266.147 425.716 266.751 426.461 266.751Z" fill="black"/>
<path d="M426.461 266.196C427.206 266.196 427.809 265.592 427.809 264.848C427.809 264.103 427.206 263.499 426.461 263.499C425.716 263.499 425.113 264.103 425.113 264.848C425.113 265.592 425.716 266.196 426.461 266.196Z" fill="#3F3D56"/>
<path opacity="0.1" d="M425.328 237.56C426.072 237.56 426.676 236.956 426.676 236.211C426.676 235.467 426.072 234.863 425.328 234.863C424.583 234.863 423.979 235.467 423.979 236.211C423.979 236.956 424.583 237.56 425.328 237.56Z" fill="black"/>
<path d="M425.328 237.011C426.072 237.011 426.676 236.407 426.676 235.662C426.676 234.917 426.072 234.313 425.328 234.313C424.583 234.313 423.979 234.917 423.979 235.662C423.979 236.407 424.583 237.011 425.328 237.011Z" fill="#3F3D56"/>
<path d="M456.405 270.917C456.405 270.917 457.323 272.295 456.405 272.915C455.486 273.534 456.494 275.122 456.494 275.122C456.494 275.122 454.203 276.461 455.211 277.675C456.22 278.889 455.581 284.338 455.581 284.338L452.825 288.929C452.825 288.929 452.989 291.871 452.999 295.847C452.999 302.05 452.635 310.771 450.618 314.747L450.887 347.37C450.887 347.37 441.236 350.901 433.157 349.822L431.958 297.475C431.958 297.475 433.706 267.79 434.35 262.096C434.727 259.139 434.881 256.159 434.809 253.18C434.809 253.18 434.535 244.269 433.611 240.138C433.611 240.138 432.612 222.216 432.513 217.256C432.468 214.883 432.593 207.96 432.732 201.377C432.887 194.179 433.062 187.391 433.062 187.391L431.239 172.961C431.239 172.961 433.062 172.781 433.611 173.51C433.857 173.74 434.125 173.946 434.41 174.124C437.561 176.252 448.675 182.796 448.675 182.796C448.675 182.796 454.827 185.243 456.3 188.75C457.773 192.256 458.796 194.744 459.51 195.743C460.224 196.742 460.614 201.437 460.614 201.437C460.614 201.437 462.731 210.078 464.384 211.542C466.036 213.005 467.225 222.296 467.225 222.296L452.62 233.784C452.62 233.784 451.337 252.895 451.062 253.634C450.787 254.373 456.405 270.917 456.405 270.917Z" fill="white"/>
<path d="M456.959 270.917C456.959 270.917 457.873 272.295 456.959 272.915C456.045 273.534 457.044 275.122 457.044 275.122C457.044 275.122 454.752 276.461 455.76 277.675C456.769 278.888 456.13 284.338 456.13 284.338L453.384 288.928C453.384 288.928 453.549 291.87 453.564 295.846C453.564 302.05 453.199 310.771 451.182 314.747L451.456 347.369C451.456 347.369 441.805 350.901 433.726 349.822L432.533 297.475C432.533 297.475 434.275 267.79 434.924 262.095C435.302 259.139 435.454 256.159 435.379 253.179C435.379 253.179 435.104 244.268 434.185 240.138C434.185 240.138 433.187 222.216 433.082 217.256C433.037 214.883 433.162 207.96 433.302 201.377C433.456 194.179 433.631 187.391 433.631 187.391L431.224 172.766C431.224 172.766 433.631 172.766 434.185 173.51C434.429 173.742 434.697 173.948 434.984 174.124C438.13 176.252 449.245 182.795 449.245 182.795C449.245 182.795 455.381 185.243 456.879 188.749C458.377 192.256 459.375 194.743 460.09 195.742C460.804 196.741 461.193 201.437 461.193 201.437C461.193 201.437 463.31 210.078 464.963 211.541C466.616 213.005 467.809 222.296 467.809 222.296L453.204 233.784C453.204 233.784 451.921 252.895 451.641 253.634C451.362 254.373 456.959 270.917 456.959 270.917Z" fill="white"/>
<path opacity="0.1" d="M439.468 191.632L440.791 195.478L433.846 202.471C434.001 195.273 434.175 188.485 434.175 188.485L431.769 173.865C431.769 173.865 434.175 173.865 434.73 174.609C434.973 174.842 435.241 175.048 435.528 175.223L441.43 192.251L439.468 191.632Z" fill="black"/>
<path d="M438.904 190.528L440.227 194.369L433.287 201.362C433.436 194.164 433.616 187.376 433.616 187.376L431.204 172.75C431.204 172.75 433.616 172.75 434.165 173.495C434.41 173.726 434.678 173.932 434.964 174.109L440.901 191.152L438.904 190.528Z" fill="white"/>
<path opacity="0.1" d="M438.904 152.471C438.906 154.271 438.623 156.06 438.065 157.771C437.971 157.787 437.875 157.783 437.782 157.761C437.689 157.739 437.602 157.698 437.526 157.641C437.391 153.145 435.184 148.92 432.463 145.328C431.697 144.245 430.771 143.285 429.716 142.481C428.649 141.68 427.321 141.304 425.992 141.427C424.494 141.632 423.171 142.651 421.658 142.781C419.66 142.946 417.873 141.562 415.891 141.497C415.085 141.504 414.289 141.683 413.558 142.022C412.827 142.362 412.177 142.854 411.651 143.465C410.609 144.695 409.835 146.129 409.38 147.676C408.594 150.023 408.167 152.475 408.111 154.949C408.086 156.347 407.952 158.1 406.653 158.61C406.752 157.582 406.635 156.545 406.311 155.565C405.987 154.584 405.462 153.682 404.771 152.916L404.741 152.881C404.741 152.741 404.741 152.611 404.741 152.471C404.741 147.938 406.541 143.59 409.745 140.385C412.95 137.179 417.296 135.378 421.827 135.378C426.359 135.378 430.705 137.179 433.909 140.385C437.114 143.59 438.914 147.938 438.914 152.471H438.904Z" fill="black"/>
<path d="M428.918 125.334C426.323 124.113 423.372 123.882 420.619 124.684C419.236 125.094 417.933 125.758 416.53 126.093C413.534 126.817 410.039 126.033 407.467 127.786C406.039 128.785 405.18 130.364 404.381 131.902L402.384 135.703C401.296 137.786 400.197 139.904 399.743 142.197C399.288 144.489 399.563 147.057 401.016 148.905C402.07 150.244 403.637 151.088 404.786 152.351C405.476 153.122 405.999 154.027 406.322 155.009C406.645 155.992 406.761 157.031 406.663 158.061C407.961 157.561 408.091 155.798 408.121 154.399C408.177 151.925 408.605 149.474 409.39 147.127C409.845 145.58 410.619 144.146 411.661 142.916C412.187 142.304 412.837 141.811 413.568 141.471C414.299 141.131 415.094 140.951 415.901 140.943C417.898 141.013 419.69 142.396 421.668 142.227C423.165 142.102 424.494 141.083 426.002 140.878C427.331 140.752 428.66 141.128 429.726 141.932C430.782 142.733 431.707 143.694 432.468 144.779C435.194 148.375 437.406 152.581 437.536 157.092C438.1 157.501 438.914 156.962 439.193 156.322C439.473 155.683 439.483 154.934 439.837 154.324C440.247 153.62 441.031 153.241 441.645 152.711C443.203 151.367 443.592 149.105 443.532 147.052C443.472 144.999 443.073 142.916 443.462 140.898C443.697 139.664 444.226 138.5 444.516 137.277C444.806 136.053 444.841 134.679 444.157 133.625C443.158 132.082 441.056 131.772 439.223 131.627C437.141 131.447 435.279 131.677 433.951 129.924C433.326 129.01 432.624 128.151 431.854 127.357C431.579 127.092 428.918 125.444 428.918 125.334Z" fill="#512E4E"/>
<path opacity="0.1" d="M374.633 230.667L369.42 221.022L367.767 235.907C367.767 235.907 368.686 242.52 368.501 243.534C368.316 244.548 372.266 253.639 372.266 253.639C372.266 253.639 385.313 276.891 390.64 278.084L408.616 265.217L403.842 259.153C403.842 259.153 402.189 258.509 401.775 259.153C401.775 259.153 392.907 243.899 391.994 242.8C391.08 241.701 391.255 239.488 391.255 239.488C391.255 239.488 389.876 238.02 390.336 236.641C390.795 235.263 387.7 230.487 387.7 230.487L390.546 227.825L374.633 230.667Z" fill="black"/>
<path d="M369.694 219.918L368.316 221.022L366.664 235.907C366.664 235.907 367.582 242.52 367.397 243.534C367.213 244.548 371.167 253.639 371.167 253.639C371.167 253.639 384.209 276.89 389.537 278.084L407.542 265.217L402.764 259.153C402.764 259.153 401.111 258.509 400.696 259.153C400.696 259.153 391.834 243.899 390.915 242.8C389.996 241.701 390.181 239.488 390.181 239.488C390.181 239.488 388.803 238.02 389.262 236.641C389.722 235.262 386.596 230.487 386.596 230.487L389.442 227.825L369.694 219.918Z" fill="white"/>
<path opacity="0.1" d="M455.211 278.249C456.21 279.463 455.581 284.917 455.581 284.917L452.825 289.478C452.825 289.478 452.989 292.425 452.999 296.401L448.366 297.849C447.946 297.98 447.502 298.009 447.069 297.933C446.636 297.857 446.228 297.678 445.878 297.412C445.528 297.146 445.247 296.801 445.058 296.404C444.869 296.007 444.777 295.571 444.791 295.132L445.594 269.358L456.405 273.489C455.486 274.128 456.494 275.697 456.494 275.697C456.494 275.697 454.203 277.035 455.211 278.249Z" fill="black"/>
<path d="M455.761 277.7C456.759 278.908 456.13 284.363 456.13 284.363L453.384 288.928C453.384 288.928 453.549 291.87 453.564 295.846L448.845 297.32C448.435 297.448 448.001 297.477 447.578 297.403C447.155 297.329 446.755 297.156 446.413 296.896C446.071 296.636 445.796 296.299 445.611 295.911C445.426 295.523 445.337 295.097 445.35 294.668L446.154 268.804L456.959 272.945C456.035 273.584 457.044 275.152 457.044 275.152C457.044 275.152 454.752 276.486 455.761 277.7Z" fill="white"/>
<path d="M459.346 265.402C459.346 265.402 458.612 270.092 456.774 270.367C454.937 270.642 454.113 277.954 452.28 277.7C450.448 277.445 451.661 270.896 451.726 269.628C451.791 268.359 449.729 263.104 451.267 261.91C452.805 260.717 457.698 261.91 457.698 261.91L459.346 265.402Z" fill="#CF6F80"/>
<path opacity="0.1" d="M463.23 229.288L466.69 222.295C466.69 222.295 468.074 227.625 468.074 230.472C468.074 233.319 470.001 233.599 470.001 233.599C470.001 233.599 472.113 236.096 471 237.92C469.886 239.743 469.442 244.258 469.442 244.258C469.442 244.258 469.806 252.895 468.153 254.088C466.501 255.282 466.131 258.134 466.131 258.134C466.131 258.134 463.1 263.554 463.195 264.842C463.29 266.131 458.971 274.857 458.971 274.857C458.971 274.857 461.083 264.013 448.775 259.328C448.775 259.328 448.68 255.652 449.599 254.643C450.518 253.634 451.951 253.144 451.052 248.069C450.153 242.995 450.792 236.876 450.792 235.652C450.792 234.428 453.549 226.801 453.549 226.801L463.23 229.288Z" fill="black"/>
<path d="M464.768 221.297L467.794 222.296C467.794 222.296 469.177 227.625 469.177 230.473C469.177 233.32 471.104 233.599 471.104 233.599C471.104 233.599 473.216 236.097 472.103 237.92C470.989 239.743 470.54 244.259 470.54 244.259C470.54 244.259 470.91 252.895 469.257 254.089C467.604 255.283 467.26 258.135 467.26 258.135C467.26 258.135 464.229 263.554 464.324 264.843C464.419 266.132 460.095 274.858 460.095 274.858C460.095 274.858 462.207 264.014 449.899 259.328C449.899 259.328 449.809 255.652 450.727 254.643C451.646 253.634 453.079 253.145 452.18 248.07C451.282 242.995 451.921 236.876 451.921 235.652C451.921 234.429 454.677 226.801 454.677 226.801L464.768 221.297Z" fill="white"/>
<path opacity="0.1" d="M397.92 402.549C397.92 402.549 402.744 399.517 405.909 401.72C409.075 403.923 397.92 402.549 397.92 402.549Z" fill="black"/>
<path opacity="0.1" d="M435.409 393.173C435.409 393.173 439.678 392.624 443.263 396.485C446.848 400.346 435.409 393.173 435.409 393.173Z" fill="black"/>
<g opacity="0.1">
<path opacity="0.1" d="M441.645 151.612C441.031 152.146 440.242 152.521 439.832 153.225C439.483 153.829 439.473 154.579 439.193 155.223C438.914 155.867 438.1 156.402 437.531 155.992C437.401 151.497 435.189 147.276 432.468 143.68C431.707 142.596 430.782 141.637 429.726 140.838C428.658 140.032 427.328 139.654 425.997 139.779C424.499 139.983 423.18 141.002 421.668 141.132C419.67 141.297 417.878 139.913 415.896 139.849C415.09 139.855 414.295 140.033 413.565 140.373C412.835 140.712 412.185 141.205 411.661 141.817C410.619 143.046 409.845 144.481 409.39 146.027C408.605 148.374 408.177 150.826 408.121 153.3C408.091 154.694 407.961 156.432 406.673 156.951C406.703 157.322 406.703 157.694 406.673 158.065C407.976 157.566 408.106 155.802 408.136 154.404C408.192 151.93 408.62 149.478 409.404 147.131C409.86 145.585 410.634 144.15 411.676 142.92C412.201 142.309 412.85 141.816 413.58 141.476C414.31 141.136 415.105 140.955 415.911 140.947C417.908 141.017 419.705 142.401 421.683 142.231C423.18 142.106 424.509 141.087 426.012 140.882C427.343 140.757 428.673 141.133 429.741 141.936C430.797 142.738 431.722 143.698 432.483 144.784C435.204 148.38 437.416 152.586 437.546 157.096C438.115 157.506 438.929 156.966 439.208 156.327C439.488 155.688 439.498 154.938 439.847 154.329C440.257 153.625 441.046 153.245 441.66 152.716C443.218 151.372 443.607 149.109 443.547 147.056C443.547 146.991 443.547 146.931 443.547 146.866C443.447 148.655 442.973 150.468 441.645 151.612Z" fill="black"/>
<path opacity="0.1" d="M404.781 151.262C403.637 149.998 402.07 149.149 401.016 147.81C400.126 146.629 399.619 145.203 399.563 143.725C399.406 145.573 399.922 147.416 401.016 148.914C402.07 150.253 403.637 151.097 404.781 152.361C405.885 153.596 406.549 155.163 406.668 156.816C406.743 155.811 406.615 154.801 406.291 153.847C405.966 152.892 405.453 152.013 404.781 151.262Z" fill="black"/>
<path opacity="0.1" d="M444.516 136.177C444.221 137.401 443.697 138.565 443.458 139.799C443.314 140.633 443.262 141.481 443.303 142.326C443.319 141.848 443.371 141.373 443.458 140.903C443.697 139.669 444.221 138.505 444.516 137.281C444.685 136.606 444.741 135.907 444.681 135.213C444.649 135.538 444.594 135.86 444.516 136.177Z" fill="black"/>
</g>
<path opacity="0.1" d="M55.2735 419.017C82.1437 419.017 103.926 415.517 103.926 411.2C103.926 406.883 82.1437 403.383 55.2735 403.383C28.4033 403.383 6.62067 406.883 6.62067 411.2C6.62067 415.517 28.4033 419.017 55.2735 419.017Z" fill="#08517A"/>
<path d="M56.8414 261.446H53.7107V331.96H56.8414V261.446Z" fill="#535461"/>
<path d="M76.5191 331.75L76.3194 334.927L76.0448 339.422L75.9299 341.29L75.6503 345.786L75.5305 347.654L75.2559 352.149L72.0952 403.133C71.9605 405.327 70.9943 407.386 69.3938 408.892C67.7933 410.397 65.679 411.235 63.4821 411.235H47.0698C44.8668 411.236 42.747 410.393 41.1454 408.88C39.5437 407.367 38.5817 405.298 38.4567 403.098L35.2961 352.114L35.0214 347.619L34.9066 345.751L34.622 341.255L34.5071 339.387L34.2325 334.892L34.0328 331.715C33.9982 331.106 34.0879 330.497 34.2963 329.923C34.5048 329.35 34.8276 328.826 35.2452 328.381C35.6628 327.937 36.1664 327.582 36.7253 327.339C37.2843 327.095 37.887 326.968 38.4966 326.965H72.0603C72.6727 326.968 73.2779 327.097 73.8387 327.343C74.3996 327.589 74.9043 327.947 75.3218 328.395C75.7394 328.843 76.061 329.372 76.2669 329.949C76.4728 330.526 76.5586 331.139 76.5191 331.75Z" fill="#3F3D56"/>
<path d="M76.3194 334.922L76.0398 339.407H34.5072L34.2275 334.922H76.3194Z" fill="#9D9CB5"/>
<path d="M75.925 341.275L75.6504 345.761H34.9016L34.622 341.275H75.925Z" fill="#9D9CB5"/>
<path d="M75.5305 347.634L75.2559 352.115H35.2961L35.0165 347.634H75.5305Z" fill="#9D9CB5"/>
<path d="M29.4691 287.879C47.704 301.076 55.2985 321.715 55.2985 321.715C55.2985 321.715 33.3288 320.961 15.089 307.764C-3.15081 294.568 -10.7553 273.943 -10.7553 273.943C-10.7553 273.943 11.2144 274.683 29.4691 287.879Z" fill="#08517A"/>
<path d="M-10.7553 273.943C-10.7553 273.943 12.0482 286.606 19.3631 297.09C26.678 307.574 55.2785 321.725 55.2785 321.725" stroke="#535461" stroke-width="2" stroke-miterlimit="10"/>
<path d="M41.2179 261.296C51.1442 268.474 55.2785 279.708 55.2785 279.708C55.2785 279.708 43.295 279.298 33.3937 272.12C23.4924 264.943 19.3331 253.704 19.3331 253.704C19.3331 253.704 31.2966 254.114 41.2179 261.296Z" fill="#08517A"/>
<path d="M19.3331 253.704C19.3331 253.704 31.746 260.597 35.7305 266.301C39.715 272.006 55.2785 279.708 55.2785 279.708" stroke="#535461" stroke-width="2" stroke-miterlimit="10"/>
<path d="M69.6986 279.138C58.2993 291.67 55.8876 308.049 55.8876 308.049C55.8876 308.049 71.9604 304.103 83.3497 291.566C94.739 279.028 97.1606 262.655 97.1606 262.655C97.1606 262.655 81.0978 266.606 69.6986 279.138Z" fill="#08517A"/>
<path d="M97.1706 262.66C97.1706 262.66 82.3211 275.507 78.5463 284.358C74.7715 293.209 55.8876 308.049 55.8876 308.049" stroke="#535461" stroke-width="2" stroke-miterlimit="10"/>
</g>
<defs>
<linearGradient id="paint0_linear" x1="221.444" y1="417.359" x2="221.444" y2="128.825" gradientUnits="userSpaceOnUse">
<stop stop-color="#808080" stop-opacity="0.25"/>
<stop offset="0.54" stop-color="#808080" stop-opacity="0.12"/>
<stop offset="1" stop-color="#808080" stop-opacity="0.1"/>
</linearGradient>
<linearGradient id="paint1_linear" x1="94997.3" y1="270403" x2="94997.3" y2="81282.6" gradientUnits="userSpaceOnUse">
<stop stop-color="#808080" stop-opacity="0.25"/>
<stop offset="0.54" stop-color="#808080" stop-opacity="0.12"/>
<stop offset="1" stop-color="#808080" stop-opacity="0.1"/>
</linearGradient>
<clipPath id="clip0">
<rect width="583" height="431" fill="white" transform="translate(-11)"/>
</clipPath>
</defs>
</svg>
