<svg width="32" height="32" viewBox="0 0 32 32" fill="none" xmlns="http://www.w3.org/2000/svg">
<path d="M4 10.6668C4 11.4002 4.6 12.0002 5.33333 12.0002C6.06667 12.0002 6.66667 11.4002 6.66667 10.6668V8.00016H9.33333C10.0667 8.00016 10.6667 7.40016 10.6667 6.66683C10.6667 5.9335 10.0667 5.3335 9.33333 5.3335H6.66667V2.66683C6.66667 1.9335 6.06667 1.3335 5.33333 1.3335C4.6 1.3335 4 1.9335 4 2.66683V5.3335H1.33333C0.6 5.3335 0 5.9335 0 6.66683C0 7.40016 0.6 8.00016 1.33333 8.00016H4V10.6668Z" fill="#DA8F06"/>
<path d="M17.3333 22.6665C19.5425 22.6665 21.3333 20.8756 21.3333 18.6665C21.3333 16.4574 19.5425 14.6665 17.3333 14.6665C15.1242 14.6665 13.3333 16.4574 13.3333 18.6665C13.3333 20.8756 15.1242 22.6665 17.3333 22.6665Z" fill="#DA8F06"/>
<path d="M28 8.00016H23.7733L22.12 6.20016C21.6267 5.6535 20.9067 5.3335 20.16 5.3335H11.6267C11.8533 5.7335 12 6.1735 12 6.66683C12 8.1335 10.8 9.3335 9.33333 9.3335H8V10.6668C8 12.1335 6.8 13.3335 5.33333 13.3335C4.84 13.3335 4.4 13.1868 4 12.9602V26.6668C4 28.1335 5.2 29.3335 6.66667 29.3335H28C29.4667 29.3335 30.6667 28.1335 30.6667 26.6668V10.6668C30.6667 9.20016 29.4667 8.00016 28 8.00016ZM17.3333 25.3335C13.6533 25.3335 10.6667 22.3468 10.6667 18.6668C10.6667 14.9868 13.6533 12.0002 17.3333 12.0002C21.0133 12.0002 24 14.9868 24 18.6668C24 22.3468 21.0133 25.3335 17.3333 25.3335Z" fill="#DA8F06"/>
</svg>
