<svg width="159" height="68" viewBox="0 0 159 68" fill="none" xmlns="http://www.w3.org/2000/svg">
<path d="M103.073 29.2277L96.4149 19.2896L102.342 9.83983H96.4347L91.9501 17.0657V9.83983H86.8398V29.2277H91.9501V21.85L96.8496 29.2277H103.073Z" fill="#08517A"/>
<path d="M104.91 29.227H110.053V9.83908H104.91V29.227Z" fill="#08517A"/>
<path d="M119.727 9.83245L113.418 9.84564V29.2269H119.727C126.299 29.2269 130.323 25.5711 130.323 19.5594C130.323 13.4949 126.299 9.80605 119.727 9.83245ZM119.648 24.3701H118.423V14.6431H119.602C123.066 14.6497 125.18 16.504 125.18 19.5462C125.18 22.5487 123.079 24.3833 119.655 24.3833V24.3767L119.648 24.3701Z" fill="#08517A"/>
<path d="M101.341 38.2536L96.8629 48.7592L92.3981 38.2536H86.84L95.7171 57.8593H98.0483L106.971 38.2536H101.341Z" fill="#08517A"/>
<path d="M117.462 57.6414H123.092L114.09 38.0028H111.654L102.665 57.6414H108.282L109.263 55.3714H116.487L117.455 57.6414H117.462ZM110.89 51.6099L112.879 47.0104L114.854 51.6099H110.883H110.89Z" fill="#08517A"/>
<path d="M132.951 58.0506C135.895 58.0506 138.357 56.8826 140.201 55.1998L137.271 51.2932C136.02 52.4085 134.571 53.1805 132.951 53.1805C130.192 53.1805 127.604 50.9699 127.604 47.9673C127.604 44.9978 130.086 42.7277 133.063 42.7277C134.485 42.7277 136.059 43.4404 137.251 44.516L140.208 40.7348C138.226 38.9135 135.552 37.8181 133.056 37.7851C127.031 37.7851 122.395 42.1998 122.395 47.9277C122.395 54.0054 127.498 58.044 132.957 58.044L132.951 58.0506Z" fill="#08517A"/>
<path d="M151.278 58.0506C154.222 58.0506 156.685 56.8826 158.528 55.1998L155.598 51.2932C154.347 52.4085 152.898 53.1805 151.278 53.1805C148.519 53.1805 145.931 50.9699 145.931 47.9673C145.931 44.9978 148.413 42.7277 151.39 42.7277C152.812 42.7277 154.386 43.4404 155.578 44.516L158.535 40.7348C156.553 38.9135 153.879 37.8181 151.383 37.7851C145.358 37.7851 140.722 42.1998 140.722 47.9277C140.722 54.0054 145.825 58.044 151.285 58.044L151.278 58.0506Z" fill="#08517A"/>
<g clip-path="url(#clip0)">
<path d="M39.2401 33.599C33.49 39.7637 26.5149 38.9262 21.2557 35.3277C22.6993 34.3732 24.1964 33.4967 25.5574 32.445C26.5587 31.6707 27.5016 30.7553 28.2647 29.7473C30.0049 27.4489 29.2612 25.6911 26.4517 25.1944C26.0531 25.1262 25.6497 25.0678 25.3435 25.0191C25.4213 24.3715 25.7566 23.5875 25.4942 23.1638C25.2463 22.7597 24.3859 22.7353 23.7784 22.5357C24.2304 20.5782 24.1672 20.5295 21.1196 20.6415C21.2459 19.3754 21.3772 18.1289 21.5181 16.7265C20.8765 16.8385 20.5266 16.8725 20.196 16.9651C17.3477 17.7247 14.6743 17.8854 11.9912 16.0837C9.51717 14.4184 6.62994 14.1798 3.72812 15.1196C3.41704 15.2218 3.08165 15.2462 2.75113 15.2218C6.00777 13.1134 9.42482 12.4122 12.7058 14.881C14.9563 16.5755 17.1435 16.5853 19.6176 15.8061C20.4148 15.5578 21.3091 15.626 22.3639 15.5335C22.359 15.5773 22.4174 15.2072 22.4806 14.8177C23.1319 16.1324 23.6666 17.4617 24.42 18.6596C26.0726 21.294 28.4543 22.7061 31.6332 22.3896C33.6698 22.1851 35.2495 22.6866 36.2314 24.6247C36.5813 25.3161 37.1257 25.8031 37.9229 25.0288C38.0881 24.8681 38.5305 24.7074 38.5694 24.7561C39.488 26.0027 40.9316 25.1506 41.4469 24.8341C43.046 23.8407 45.0632 23.3781 45.5444 20.8022C47.0804 12.6264 41.3837 3.53521 33.2664 1.73352C29.3633 0.866767 25.6497 2.66845 23.6082 6.58833C22.8402 8.06377 22.4028 9.70963 21.8633 11.1412C20.8133 9.61711 22.082 4.98143 24.9206 2.42498C29.0279 -1.27091 33.49 -0.793714 41.1892 4.20718C41.2719 4.10005 41.3594 3.98806 41.442 3.88093C39.9692 2.74149 38.4916 1.60205 37.0188 0.462603C37.0139 0.404173 37.0091 0.345736 37.0042 0.292174C37.9958 0.657378 39.1235 0.83755 39.9595 1.42675C42.3266 3.09209 44.966 3.59851 47.7657 3.80303C50.9592 4.03676 53.8659 5.28333 56.3788 7.18727C59.9174 9.86545 63.281 12.7774 66.7174 15.5919C66.6008 15.7477 66.489 15.9035 66.3723 16.0642C64.394 14.7397 62.4206 13.4104 60.0826 11.8424C61.1228 13.5613 62.0075 14.8371 62.7123 16.2103C65.5217 21.703 64.292 26.9084 59.339 30.6043C56.2233 32.927 52.641 34.0373 48.8399 34.6118C48.0039 34.7385 47.2165 35.24 46.4193 35.5906C46.2395 35.6685 46.0985 35.8438 45.9333 35.9655C42.8856 38.147 40.3289 37.2949 39.2401 33.599ZM57.8467 21.9221C56.8163 22.4383 55.7858 22.8473 54.8623 23.4268C51.2751 25.6765 47.8484 28.1745 43.7216 29.4795C42.2051 29.9567 41.2767 31.3396 41.301 33.0682C41.3059 33.4432 41.6705 34.1444 41.8406 34.1346C43.0703 34.0665 44.6646 34.2759 45.4326 33.5893C46.6721 32.4839 47.9553 32.2599 49.4183 32.1236C54.8963 31.6025 59.1688 29.309 61.4631 24.0062C62.2456 22.2046 62.4692 20.3347 61.6137 18.6499C59.4313 14.3502 56.5246 10.5959 52.291 8.10759C50.93 7.30901 49.3357 6.93406 47.9747 8.08324C46.6818 9.17399 47.1047 10.6884 47.4109 12.1005C47.4644 12.3489 47.5519 12.5972 47.6588 12.8261C48.0914 13.7318 48.5434 14.6277 48.9906 15.5286C48.8983 15.5724 48.8108 15.6211 48.7184 15.6649C47.9602 14.3697 47.2019 13.0793 46.4193 11.745C46.4242 16.3613 51.4161 20.8119 57.8467 21.9221ZM53.8804 22.7061C51.1001 22.263 49.2239 20.8119 47.5324 18.4259C47.5324 19.4874 47.5762 20.1351 47.5227 20.773C47.338 23.047 46.1228 24.3617 44.1542 24.7707C42.9828 25.0142 41.6899 25.3161 40.781 26.0222C39.6776 26.8792 39.1137 26.6796 38.5645 25.6083C36.7758 26.8597 36.8292 26.811 35.3273 25.17C34.7926 24.5857 33.9517 23.9965 33.2129 23.9332C31.1714 23.7628 29.1056 23.8748 26.6413 23.8748C27.4725 24.1231 27.9877 24.313 28.5175 24.4299C30.5687 24.8827 31.045 25.6326 30.559 27.6924C30.0486 29.8593 28.6973 31.4175 26.9669 32.703C26.5878 32.9855 26.2135 33.2728 25.7518 33.6234C28.4203 35.5468 31.1228 36.3064 34.0732 35.4396C36.2314 34.8066 38.5062 33.9886 39.5998 31.9044C40.7178 29.7765 42.1857 28.4326 44.4702 27.8434C47.9553 26.9571 50.9057 25.0873 53.8804 22.7061ZM48.5872 6.12087C46.6818 5.91635 44.8979 5.72157 42.9148 5.50732C44.791 6.60294 46.4242 8.04916 48.5872 6.12087Z" fill="#CC8807"/>
<path d="M62.8536 12.3866C65.2985 14.1542 67.5927 16.1701 69.6293 18.4587C70.6404 19.6079 71.5979 20.8155 72.4534 22.1059C73.3089 23.3963 74.0623 24.7646 74.699 26.1962C75.9871 29.0546 76.7065 32.2343 76.6627 35.453C76.6433 37.0599 76.4488 38.6717 76.06 40.2348C75.6663 41.7979 75.1073 43.3122 74.4171 44.7585C73.0269 47.6509 71.1264 50.2463 68.9391 52.5008C66.7567 54.7651 64.3264 56.7421 61.7745 58.5097C59.1935 60.253 56.4521 61.7479 53.6232 63.0042C50.7846 64.2508 47.8633 65.3074 44.8594 66.0476C38.8662 67.5522 32.6105 68.1463 26.4521 67.4159C24.9112 67.2454 23.385 66.9874 21.8733 66.6465C20.3617 66.3008 18.8792 65.8528 17.421 65.322C14.5191 64.2508 11.734 62.824 9.26963 60.9542C8.02531 60.029 6.89277 59.021 5.7894 57.8962C4.72978 56.7567 3.82083 55.5248 2.99938 54.2246C1.38564 51.6341 0.146171 48.6978 0.0100725 45.5814C-0.0482556 44.0329 0.199638 42.465 0.787778 41.0382C1.38078 39.6066 2.28486 38.3308 3.36393 37.2596C5.53178 35.0927 8.26834 33.6708 11.0584 32.58C8.3218 33.7974 5.64844 35.3167 3.61668 37.5079C2.60081 38.5938 1.78421 39.855 1.26898 41.233C0.753754 42.6111 0.569049 44.0914 0.671122 45.5522C0.894713 48.4884 2.16335 51.264 3.79653 53.7085C4.61798 54.9307 5.55123 56.0993 6.57197 57.1365C6.82472 57.3995 7.08234 57.6235 7.37884 57.8572C7.66076 58.0909 7.95726 58.3101 8.25376 58.5341C8.84676 58.9723 9.44948 59.3911 10.0765 59.7758C12.57 61.334 15.2677 62.5221 18.0674 63.3548C20.8818 64.1631 23.7739 64.6598 26.6854 64.8643C32.5182 65.2344 38.4093 64.5429 44.038 62.9604C49.6617 61.3875 55.0765 58.9918 59.8643 55.6952C64.686 52.4473 69.0169 48.3862 71.6903 43.3902C72.9978 40.8921 73.8192 38.1604 74.0234 35.3507C74.2227 32.5411 73.7512 29.6779 72.8082 26.9461C72.3319 25.5778 71.7243 24.2485 71.0292 22.9581C70.3439 21.6579 69.5516 20.4114 68.6912 19.1989C66.9754 16.7836 64.9825 14.5291 62.8536 12.3866Z" fill="#08517A"/>
</g>
<defs>
<clipPath id="clip0">
<rect width="67.7336" height="76.6721" fill="white" transform="translate(0 67.7336) rotate(-90)"/>
</clipPath>
</defs>
</svg>
