<svg width="20" height="16" viewBox="0 0 20 16" fill="none" xmlns="http://www.w3.org/2000/svg">
<path d="M10 3.41673C12.3 3.41673 14.1667 5.2834 14.1667 7.5834C14.1667 8.0084 14.0833 8.41673 13.9667 8.80007L16.5167 11.3501C17.675 10.3251 18.5917 9.04173 19.1667 7.57507C17.725 3.92506 14.1667 1.3334 10 1.3334C8.94168 1.3334 7.92501 1.50007 6.96668 1.8084L8.77501 3.61673C9.16668 3.50007 9.57501 3.41673 10 3.41673ZM2.25834 0.633398C1.93334 0.958398 1.93334 1.4834 2.25834 1.8084L3.90001 3.45007C2.55001 4.52506 1.47501 5.94173 0.833344 7.5834C2.27501 11.2417 5.83334 13.8334 10 13.8334C11.2667 13.8334 12.475 13.5834 13.5917 13.1501L15.8583 15.4167C16.1833 15.7417 16.7083 15.7417 17.0333 15.4167C17.3583 15.0917 17.3583 14.5667 17.0333 14.2417L3.44168 0.633398C3.11668 0.308398 2.58334 0.308398 2.25834 0.633398ZM10 11.7501C7.70001 11.7501 5.83334 9.8834 5.83334 7.5834C5.83334 6.94173 5.98334 6.3334 6.24168 5.80007L7.55001 7.1084C7.52501 7.2584 7.50001 7.41673 7.50001 7.5834C7.50001 8.96673 8.61668 10.0834 10 10.0834C10.1667 10.0834 10.3167 10.0584 10.475 10.0251L11.7833 11.3334C11.2417 11.6001 10.6417 11.7501 10 11.7501ZM12.475 7.3084C12.35 6.14173 11.4333 5.2334 10.275 5.1084L12.475 7.3084Z" fill="#08517A"/>
</svg>
